<svg xmlns="http://www.w3.org/2000/svg" xmlns:xlink="http://www.w3.org/1999/xlink" viewBox="0,0,256,256" width="64px" height="64px" fill-rule="nonzero"><g fill="#714eff" fill-rule="nonzero" stroke="none" stroke-width="1" stroke-linecap="butt" stroke-linejoin="miter" stroke-miterlimit="10" stroke-dasharray="" stroke-dashoffset="0" font-family="none" font-weight="none" font-size="none" text-anchor="none" style="mix-blend-mode: normal"><g transform="scale(4,4)"><path d="M59,8.5h-7.5v-3.5c-0.00271,-2.48416 -2.01584,-4.49729 -4.5,-4.5h-42c-2.48416,0.00271 -4.49729,2.01584 -4.5,4.5v26c0.00271,2.48416 2.01584,4.49729 4.5,4.5h3.5v2.18317c-5.61933,2.50316 -8.834,8.4904 -7.81608,14.55724c1.01792,6.06684 6.01068,10.677 12.13927,11.20903c6.12859,0.53204 11.8411,-3.14877 13.88927,-8.94944h5.78754v6.5c0.00077,0.60629 0.36629,1.15256 0.92644,1.38457c0.56015,0.23201 1.20487,0.10417 1.63411,-0.32402l7.56054,-7.56055h16.37891c2.48416,-0.00271 4.49729,-2.01584 4.5,-4.5v-37c-0.00271,-2.48416 -2.01584,-4.49729 -4.5,-4.5zM5,32.5c-0.82805,-0.0009 -1.4991,-0.67195 -1.5,-1.5v-26c0.0009,-0.82805 0.67195,-1.4991 1.5,-1.5h42c0.82805,0.0009 1.4991,0.67195 1.5,1.5v3.5h-35.5c-2.48416,0.00271 -4.49729,2.01584 -4.5,4.5v19.5zM12.35858,39.64142c-0.71653,4.48423 -4.23293,8.00063 -8.71716,8.71716c0.71653,-4.48423 4.23293,-8.00063 8.71716,-8.71716zM14,60.5c-5.25428,-0.00861 -9.69451,-3.89708 -10.39618,-9.10431c4.45171,-0.53886 8.34628,-3.25066 10.39618,-7.23889c2.0499,3.98823 5.94447,6.70003 10.39618,7.23889c-0.70167,5.20723 -5.1419,9.0957 -10.39618,9.10431zM15.64142,39.64142c4.48423,0.71653 8.00063,4.23293 8.71716,8.71716c-4.48423,-0.71653 -8.00063,-4.23293 -8.71716,-8.71716zM60.5,50c-0.0009,0.82805 -0.67195,1.4991 -1.5,1.5h-17c-0.39779,0.00013 -0.77925,0.15819 -1.06055,0.43945l-5.43945,5.43946v-4.37891c-0.00022,-0.82834 -0.67166,-1.49978 -1.5,-1.5h-6.58844c0.48988,-4.25749 -1.07674,-8.49382 -4.2188,-11.4082c-3.14207,-2.91438 -7.48407,-4.1585 -11.69276,-3.35034v-23.74146c0.0009,-0.82805 0.67195,-1.4991 1.5,-1.5h46c0.82805,0.0009 1.4991,0.67195 1.5,1.5z"></path><path d="M17.18066,53.18164c-0.84296,0.84471 -1.9873,1.31941 -3.18066,1.31941c-1.19336,0 -2.3377,-0.4747 -3.18066,-1.31941c-0.58572,-0.58626 -1.53581,-0.5867 -2.12207,-0.00098c-0.58626,0.58572 -0.5867,1.53581 -0.00098,2.12207c1.40597,1.40787 3.31402,2.19897 5.30371,2.19897c1.98969,0 3.89774,-0.79109 5.30371,-2.19897c0.38195,-0.37862 0.53206,-0.9327 0.39346,-1.45235c-0.13859,-0.51965 -0.54469,-0.92538 -1.06447,-1.06351c-0.51977,-0.13813 -1.07372,0.01248 -1.452,0.39477z"></path><path d="M37.5,18v-1c0,-0.82843 -0.67157,-1.5 -1.5,-1.5c-0.82843,0 -1.5,0.67157 -1.5,1.5v1c0,0.82843 0.67157,1.5 1.5,1.5c0.82843,0 1.5,-0.67157 1.5,-1.5z"></path><path d="M50,32.5c0.82843,0 1.5,-0.67157 1.5,-1.5c0,-0.82843 -0.67157,-1.5 -1.5,-1.5h-1c-0.82843,0 -1.5,0.67157 -1.5,1.5c0,0.82843 0.67157,1.5 1.5,1.5z"></path><path d="M22,29.5c-0.82843,0 -1.5,0.67157 -1.5,1.5c0,0.82843 0.67157,1.5 1.5,1.5h1c0.82843,0 1.5,-0.67157 1.5,-1.5c0,-0.82843 -0.67157,-1.5 -1.5,-1.5z"></path><path d="M27.86816,20.74707l-0.707,-0.707c-0.58571,-0.58574 -1.53537,-0.58576 -2.12111,-0.00005c-0.58574,0.58571 -0.58576,1.53537 -0.00005,2.12111l0.707,0.707c0.58606,0.58377 1.5341,0.58284 2.11901,-0.00208c0.58491,-0.58491 0.58584,-1.53296 0.00208,-2.11901z"></path><path d="M46.25293,22.86816l0.707,-0.707c0.58574,-0.58571 0.58576,-1.53537 0.00005,-2.12111c-0.58571,-0.58574 -1.53537,-0.58576 -2.12111,-0.00005l-0.707,0.707c-0.58377,0.58606 -0.58284,1.5341 0.00208,2.11901c0.58491,0.58491 1.53296,0.58584 2.11901,0.00208z"></path><path d="M26.5,31c0.00548,3.07159 1.4956,5.95103 4,7.72943v2.27057c0.00234,1.93203 1.56797,3.49766 3.5,3.5h4c1.93203,-0.00234 3.49766,-1.56797 3.5,-3.5v-2.27057c3.66216,-2.60664 4.99448,-7.42422 3.19203,-11.54212c-1.80246,-4.1179 -6.24566,-6.40747 -10.64518,-5.48541c-4.39952,0.92205 -7.54951,4.803 -7.54685,9.29811zM36,24.75c3.45018,0.00386 6.24614,2.79982 6.25,6.25c0,0.69036 -0.55964,1.25 -1.25,1.25c-0.69036,0 -1.25,-0.55964 -1.25,-1.25c-0.00244,-2.07006 -1.67994,-3.74756 -3.75,-3.75c-0.69036,0 -1.25,-0.55964 -1.25,-1.25c0,-0.69036 0.55964,-1.25 1.25,-1.25zM33.5,39.5h5v1.5c-0.00055,0.27591 -0.22409,0.49945 -0.5,0.5h-4c-0.27591,-0.00055 -0.49945,-0.22409 -0.5,-0.5z"></path></g></g></svg>