<svg xmlns="http://www.w3.org/2000/svg" xmlns:xlink="http://www.w3.org/1999/xlink" viewBox="0,0,256,256" width="100px" height="100px" fill-rule="nonzero"><g fill="none" fill-rule="nonzero" stroke="none" stroke-width="1" stroke-linecap="butt" stroke-linejoin="miter" stroke-miterlimit="10" stroke-dasharray="" stroke-dashoffset="0" font-family="none" font-weight="none" font-size="none" text-anchor="none" style="mix-blend-mode: normal"><g transform="scale(2.56,2.56)"><path d="M84.961,19.961l4.142,-0.063c0.237,-8.453 -9.948,-7.937 -9.948,-7.937l-50.165,-0.006c-3.848,0 -7.029,4.2 -7.029,7.638v43.368l-9.974,-0.029c-0.008,0.36 0.004,20.749 0.036,21.073c0.652,6.706 9.396,5.956 9.396,5.956l58.376,0.041c3.147,0.293 5.167,-3.462 5.167,-5.547c0,-2.085 -0.001,-64.494 -0.001,-64.494" fill="#d8cfff"></path><path d="M22.961,62.961l-10.496,-0.028c-0.009,0.36 0.005,20.748 0.039,21.073c0.707,6.706 10.184,5.955 10.184,5.955h0.273z" fill="#714eff"></path><path d="M21.117,86.992c-0.552,0 -1,-0.448 -1,-1c0,-0.552 0.448,-1 1,-1c0.25,0 0.354,-0.075 0.422,-0.149c0.337,-0.363 0.75,-1.306 0.64,-2.789l-0.031,-62.469c0,-3.911 3.427,-8.458 7.875,-8.458l50.131,-0.167c0.098,0.104 5.513,-0.243 8.689,2.863c1.569,1.534 2.33,3.587 2.259,6.102c-0.015,0.541 -0.457,0.971 -0.998,0.972l-38.143,0.063h-0.001c-0.552,0 -0.999,-0.447 -1,-0.999c-0.001,-0.552 0.446,-1 0.999,-1.001l37.148,0.146c-0.13,-1.486 -0.705,-2.915 -1.656,-3.847c-2.543,-2.494 -7.203,-2.304 -7.247,-2.299l-50.214,-0.005c-3.247,0 -6.029,3.65 -6.029,6.638l-0.081,62.395c0.111,1.46 0.096,3.17 -0.875,4.215c-0.479,0.516 -1.132,0.789 -1.888,0.789z" fill="#1f212b"></path><path d="M81.148,90.977c-0.145,0 -0.292,-0.007 -0.438,-0.021l-58.195,-0.036c-3.28,0.285 -9.786,-0.774 -10.376,-6.843c-0.039,-0.396 -0.044,-20.972 -0.04,-21.139c0.012,-0.543 0.457,-0.977 1,-0.977c0.001,0 0.002,0 0.003,0l9.863,0.027c0.552,0.001 0.999,0.451 0.997,1.003c-0.001,0.551 -0.449,0.997 -1,0.997c-0.001,0 -0.002,0 -0.003,0l-9.143,-0.09c0,4.044 -0.074,19.075 -0.046,19.771c0.546,5.603 8.438,5.466 8.754,5.437l58.279,-0.146c0.904,0.08 1.677,-0.209 2.386,-0.855c1.109,-1.011 1.772,-2.664 1.772,-3.678v-64.466c0,-0.552 0.448,-1 1,-1c0.552,0 1,0.448 1,1v64.467c0,1.464 -0.833,3.705 -2.425,5.156c-1.006,0.916 -2.169,1.393 -3.388,1.393zM46.961,20.961h-5c-0.552,0 -1,-0.448 -1,-1c0,-0.552 0.448,-1 1,-1h5c0.552,0 1,0.448 1,1c0,0.552 -0.448,1 -1,1zM46.461,34.961h-18c-0.276,0 -0.5,-0.224 -0.5,-0.5c0,-0.276 0.224,-0.5 0.5,-0.5h18c0.276,0 0.5,0.224 0.5,0.5c0,0.276 -0.224,0.5 -0.5,0.5z" fill="#1f212b"></path><path d="M82.461,34.961h-33c-0.276,0 -0.5,-0.224 -0.5,-0.5c0,-0.276 0.224,-0.5 0.5,-0.5h33c0.276,0 0.5,0.224 0.5,0.5c0,0.276 -0.224,0.5 -0.5,0.5zM82.461,44.961h-31c-0.276,0 -0.5,-0.224 -0.5,-0.5c0,-0.276 0.224,-0.5 0.5,-0.5h31c0.276,0 0.5,0.224 0.5,0.5c0,0.276 -0.224,0.5 -0.5,0.5zM82.461,51.961h-31c-0.276,0 -0.5,-0.224 -0.5,-0.5c0,-0.276 0.224,-0.5 0.5,-0.5h31c0.276,0 0.5,0.224 0.5,0.5c0,0.276 -0.224,0.5 -0.5,0.5z" fill="#1f212b"></path><path d="M45.461,45.461v13h-17v-16h14" fill="#714eff"></path><path d="M45.461,58.961h-17c-0.276,0 -0.5,-0.224 -0.5,-0.5v-16c0,-0.276 0.224,-0.5 0.5,-0.5h14c0.276,0 0.5,0.224 0.5,0.5c0,0.276 -0.224,0.5 -0.5,0.5h-13.5v15h16v-12.5c0,-0.276 0.224,-0.5 0.5,-0.5c0.276,0 0.5,0.224 0.5,0.5v13c0,0.276 -0.224,0.5 -0.5,0.5zM82.461,58.961h-31c-0.276,0 -0.5,-0.224 -0.5,-0.5c0,-0.276 0.224,-0.5 0.5,-0.5h31c0.276,0 0.5,0.224 0.5,0.5c0,0.276 -0.224,0.5 -0.5,0.5zM68.461,28.961h-14c-0.276,0 -0.5,-0.224 -0.5,-0.5c0,-0.276 0.224,-0.5 0.5,-0.5h14c0.276,0 0.5,0.224 0.5,0.5c0,0.276 -0.224,0.5 -0.5,0.5zM82.461,28.961h-11c-0.276,0 -0.5,-0.224 -0.5,-0.5c0,-0.276 0.224,-0.5 0.5,-0.5h11c0.276,0 0.5,0.224 0.5,0.5c0,0.276 -0.224,0.5 -0.5,0.5zM51.461,28.961h-23c-0.276,0 -0.5,-0.224 -0.5,-0.5c0,-0.276 0.224,-0.5 0.5,-0.5h23c0.276,0 0.5,0.224 0.5,0.5c0,0.276 -0.224,0.5 -0.5,0.5zM59.461,80.961h-31c-0.276,0 -0.5,-0.224 -0.5,-0.5c0,-0.276 0.224,-0.5 0.5,-0.5h31c0.276,0 0.5,0.224 0.5,0.5c0,0.276 -0.224,0.5 -0.5,0.5zM59.461,73.961h-31c-0.276,0 -0.5,-0.224 -0.5,-0.5c0,-0.276 0.224,-0.5 0.5,-0.5h31c0.276,0 0.5,0.224 0.5,0.5c0,0.276 -0.224,0.5 -0.5,0.5z" fill="#1f212b"></path><path d="M64.461,80.461v-14h17v16h-13" fill="#714eff"></path><path d="M81.461,82.961h-13c-0.276,0 -0.5,-0.224 -0.5,-0.5c0,-0.276 0.224,-0.5 0.5,-0.5h12.5v-15h-16v13.5c0,0.276 -0.224,0.5 -0.5,0.5c-0.276,0 -0.5,-0.224 -0.5,-0.5v-14c0,-0.276 0.224,-0.5 0.5,-0.5h17c0.276,0 0.5,0.224 0.5,0.5v16c0,0.276 -0.224,0.5 -0.5,0.5zM59.461,66.961h-31c-0.276,0 -0.5,-0.224 -0.5,-0.5c0,-0.276 0.224,-0.5 0.5,-0.5h31c0.276,0 0.5,0.224 0.5,0.5c0,0.276 -0.224,0.5 -0.5,0.5z" fill="#1f212b"></path></g></g></svg>