<svg xmlns="http://www.w3.org/2000/svg" xmlns:xlink="http://www.w3.org/1999/xlink" viewBox="0,0,256,256" width="40px" height="40px" fill-rule="nonzero"><g fill="none" fill-rule="nonzero" stroke="none" stroke-width="1" stroke-linecap="butt" stroke-linejoin="miter" stroke-miterlimit="10" stroke-dasharray="" stroke-dashoffset="0" font-family="none" font-weight="none" font-size="none" text-anchor="none" style="mix-blend-mode: normal"><g transform="scale(6.4,6.4)"><path d="M31.5,3.5h7v35h-7z" fill="#957bff"></path><path d="M38,4v34h-6v-34h6M39,3h-8v36h8v-36z" fill="#714eff"></path><path d="M21.5,17.5h7v21h-7z" fill="#957bff"></path><path d="M28,18v20h-6v-20h6M29,17h-8v22h8v-22z" fill="#714eff"></path><path d="M11.5,24.5h7v14h-7z" fill="#957bff"></path><path d="M18,25v13h-6v-13h6M19,24h-8v15h8v-15z" fill="#714eff"></path><g><path d="M1.5,30.5h7v8h-7z" fill="#957bff"></path><path d="M8,31v7h-6v-7h6M9,30h-8v9h8v-9z" fill="#714eff"></path></g><g fill="#714eff"><path d="M15.464,6.95l-11.778,11.778l-1.414,-1.414l11.778,-11.778l-3.535,-3.536h8.485v8.485z"></path></g></g></g></svg>