<svg xmlns="http://www.w3.org/2000/svg" xmlns:xlink="http://www.w3.org/1999/xlink" viewBox="0,0,256,256" width="100px" height="100px" fill-rule="nonzero"><g fill="none" fill-rule="nonzero" stroke="none" stroke-width="1" stroke-linecap="butt" stroke-linejoin="miter" stroke-miterlimit="10" stroke-dasharray="" stroke-dashoffset="0" font-family="none" font-weight="none" font-size="none" text-anchor="none" style="mix-blend-mode: normal"><g transform="scale(2.56,2.56)"><path d="M16,30v-7l34,-11l34,11v7l-34,-11z" fill="#714eff"></path><path d="M84,31c-0.104,0 -0.207,-0.016 -0.308,-0.048l-33.692,-10.901l-33.692,10.9c-0.303,0.097 -0.637,0.045 -0.896,-0.143c-0.259,-0.187 -0.412,-0.488 -0.412,-0.808v-7c0,-0.434 0.28,-0.818 0.692,-0.952l34,-11c0.199,-0.064 0.416,-0.064 0.615,0l34,11c0.413,0.134 0.693,0.518 0.693,0.952v7c0,0.32 -0.153,0.621 -0.412,0.809c-0.173,0.126 -0.379,0.191 -0.588,0.191zM50,18c0.104,0 0.208,0.016 0.308,0.048l32.692,10.577v-4.898l-33,-10.676l-33,10.677v4.898l32.692,-10.577c0.1,-0.033 0.204,-0.049 0.308,-0.049z" fill="#1f212b"></path><path d="M22,42h-2c-1.657,0 -3,1.343 -3,3v37c0,1.657 1.343,3 3,3h25c0.5,1.5 2.239,3 5,3c2.761,0 4.5,-1.5 5,-3h26c1.657,0 3,-1.343 3,-3v-37c0,-1.657 -1.343,-3 -3,-3h-2" fill="#714eff"></path><path d="M50,89c-2.854,0 -4.801,-1.417 -5.652,-3h-24.348c-2.206,0 -4,-1.794 -4,-4v-37c0,-2.206 1.794,-4 4,-4h2v2h-2c-1.103,0 -2,0.897 -2,2v37c0,1.103 0.897,2 2,2h25c0.431,0 0.813,0.275 0.949,0.684c0.384,1.153 1.786,2.316 4.051,2.316c2.265,0 3.667,-1.163 4.051,-2.316c0.137,-0.409 0.518,-0.684 0.949,-0.684h26c1.103,0 2,-0.897 2,-2v-37c0,-1.103 -0.897,-2 -2,-2h-2v-2h2c2.206,0 4,1.794 4,4v37c0,2.206 -1.794,4 -4,4h-25.348c-0.851,1.583 -2.798,3 -5.652,3z" fill="#1f212b"></path><path d="M53.5,81.5c0,1.657 -1.567,3 -3.5,3c-1.933,0 -3.5,-1.343 -3.5,-3" fill="#565fa1"></path><path d="M50,85c-2.206,0 -4,-1.57 -4,-3.5c0,-0.276 0.224,-0.5 0.5,-0.5c0.276,0 0.5,0.224 0.5,0.5c0,1.378 1.346,2.5 3,2.5c1.654,0 3,-1.122 3,-2.5c0,-0.276 0.224,-0.5 0.5,-0.5c0.276,0 0.5,0.224 0.5,0.5c0,1.93 -1.794,3.5 -4,3.5z" fill="#1f212b"></path><path d="M80.5,81.5h-60v-36l4,-9c19,0 26,5 26,5c0,0 7,-5 26,-5l4,9z" fill="#fefdef"></path><path d="M76.891,76.188c-0.096,-0.119 -0.239,-0.188 -0.391,-0.188c-17.066,0 -24.485,3.965 -26,4.903c-1.515,-0.938 -8.934,-4.903 -26,-4.903c-0.152,0 -0.295,0.069 -0.391,0.188l-4,5l0.781,0.625l0.25,-0.313h28.38c0.452,0.245 0.678,0.399 0.69,0.407c0.087,0.062 0.188,0.093 0.29,0.093c0.102,0 0.203,-0.031 0.29,-0.092c0.012,-0.008 0.238,-0.162 0.69,-0.407h28.38l0.25,0.313l0.781,-0.625z" fill="#ceccbe"></path><path d="M80.5,82h-60c-0.276,0 -0.5,-0.224 -0.5,-0.5v-36c0,-0.07 0.015,-0.139 0.043,-0.203l4,-9c0.081,-0.181 0.259,-0.297 0.457,-0.297c17.066,0 24.485,3.965 26,4.903c1.515,-0.938 8.934,-4.903 26,-4.903c0.198,0 0.376,0.116 0.457,0.297l4,9c0.028,0.064 0.043,0.133 0.043,0.203v36c0,0.276 -0.224,0.5 -0.5,0.5zM21,81h59v-35.394l-3.825,-8.606c-18.324,0.056 -25.316,4.858 -25.385,4.907c-0.174,0.123 -0.406,0.123 -0.58,0c-0.069,-0.048 -7.061,-4.851 -25.385,-4.907l-3.825,8.606z" fill="#1f212b"></path><path d="M45.5,74.717c-0.053,0 -0.107,-0.008 -0.16,-0.026c-4.363,-1.476 -9.701,-2.382 -15.865,-2.691c-0.276,-0.014 -0.488,-0.249 -0.475,-0.524c0.014,-0.276 0.264,-0.481 0.524,-0.475c6.257,0.315 11.686,1.238 16.135,2.743c0.262,0.088 0.402,0.372 0.313,0.634c-0.069,0.208 -0.264,0.339 -0.472,0.339z" fill="#1f212b"></path><path d="M54.5,75.074c-0.203,0 -0.393,-0.124 -0.468,-0.325c-0.097,-0.258 0.035,-0.546 0.293,-0.643c3.164,-1.183 8.708,-2.681 17.15,-3.105c0.268,-0.026 0.51,0.199 0.524,0.475c0.014,0.275 -0.199,0.51 -0.475,0.524c-8.313,0.417 -13.752,1.885 -16.85,3.043c-0.057,0.021 -0.116,0.031 -0.174,0.031z" fill="#1f212b"></path><path d="M54.5,70.074c-0.203,0 -0.393,-0.124 -0.468,-0.325c-0.097,-0.258 0.035,-0.546 0.293,-0.643c3.164,-1.183 8.708,-2.681 17.15,-3.105c0.268,-0.02 0.51,0.198 0.524,0.475c0.014,0.275 -0.199,0.51 -0.475,0.524c-8.313,0.417 -13.752,1.885 -16.85,3.043c-0.057,0.021 -0.116,0.031 -0.174,0.031z" fill="#1f212b"></path><path d="M45.5,64.717c-0.053,0 -0.107,-0.008 -0.16,-0.026c-4.363,-1.476 -9.701,-2.382 -15.865,-2.691c-0.276,-0.014 -0.488,-0.249 -0.475,-0.524c0.014,-0.276 0.264,-0.492 0.524,-0.475c6.257,0.315 11.686,1.238 16.135,2.743c0.262,0.088 0.402,0.372 0.313,0.634c-0.069,0.208 -0.264,0.339 -0.472,0.339z" fill="#1f212b"></path><path d="M54.5,65.074c-0.203,0 -0.393,-0.124 -0.468,-0.325c-0.097,-0.258 0.035,-0.546 0.293,-0.643c3.164,-1.183 8.708,-2.681 17.15,-3.105c0.268,-0.029 0.51,0.199 0.524,0.475c0.014,0.275 -0.199,0.51 -0.475,0.524c-8.313,0.417 -13.752,1.885 -16.85,3.043c-0.057,0.021 -0.116,0.031 -0.174,0.031z" fill="#1f212b"></path><path d="M45.5,59.717c-0.053,0 -0.107,-0.008 -0.16,-0.026c-4.363,-1.476 -9.701,-2.382 -15.865,-2.691c-0.276,-0.014 -0.488,-0.249 -0.475,-0.524c0.014,-0.276 0.264,-0.489 0.524,-0.475c6.257,0.315 11.686,1.238 16.135,2.743c0.262,0.088 0.402,0.372 0.313,0.634c-0.069,0.208 -0.264,0.339 -0.472,0.339z" fill="#1f212b"></path><path d="M54.5,55.074c-0.203,0 -0.393,-0.124 -0.468,-0.325c-0.097,-0.258 0.035,-0.546 0.293,-0.643c3.164,-1.183 8.708,-2.681 17.15,-3.105c0.268,-0.016 0.51,0.198 0.524,0.475c0.014,0.275 -0.199,0.51 -0.475,0.524c-8.313,0.417 -13.752,1.885 -16.85,3.043c-0.057,0.021 -0.116,0.031 -0.174,0.031z" fill="#1f212b"></path><path d="M45.5,49.717c-0.053,0 -0.107,-0.008 -0.16,-0.026c-4.363,-1.476 -9.701,-2.382 -15.865,-2.691c-0.276,-0.014 -0.488,-0.249 -0.475,-0.524c0.014,-0.276 0.264,-0.485 0.524,-0.475c6.257,0.315 11.686,1.238 16.135,2.743c0.262,0.088 0.402,0.372 0.313,0.634c-0.069,0.208 -0.264,0.339 -0.472,0.339z" fill="#1f212b"></path><path d="M54.5,45.074c-0.203,0 -0.393,-0.124 -0.468,-0.325c-0.097,-0.258 0.035,-0.546 0.293,-0.643c3.164,-1.183 8.708,-2.681 17.15,-3.105c0.268,-0.019 0.51,0.198 0.524,0.475c0.014,0.275 -0.199,0.51 -0.475,0.524c-8.313,0.417 -13.752,1.885 -16.85,3.043c-0.057,0.021 -0.116,0.031 -0.174,0.031z" fill="#1f212b"></path><path d="M50.5,82h-30c-0.192,0 -0.367,-0.11 -0.451,-0.283c-0.083,-0.173 -0.06,-0.379 0.06,-0.529l4,-5c0.096,-0.119 0.239,-0.188 0.391,-0.188c18.942,0 26,4.885 26.291,5.093c0.177,0.126 0.252,0.353 0.186,0.56c-0.067,0.206 -0.26,0.347 -0.477,0.347zM21.541,81h26.98c-3.041,-1.41 -10.399,-3.969 -23.78,-4z" fill="#1f212b"></path><path d="M80.5,82c-0.147,0 -0.292,-0.064 -0.391,-0.188l-3.849,-4.812c-10.864,0.024 -17.732,1.692 -21.589,3.093c-0.26,0.094 -0.546,-0.039 -0.641,-0.299c-0.095,-0.26 0.04,-0.546 0.299,-0.641c3.962,-1.438 11.023,-3.153 22.171,-3.153c0.152,0 0.295,0.069 0.391,0.188l4,5c0.172,0.216 0.137,0.53 -0.078,0.703c-0.093,0.073 -0.203,0.109 -0.313,0.109z" fill="#1f212b"></path><rect x="24" y="36.5" width="1" height="40.5" fill="#1f212b"></rect><rect x="76" y="36.5" width="1" height="40.5" fill="#1f212b"></rect><path d="M50.5,71c-0.276,0 -0.5,-0.224 -0.5,-0.5v-29c0,-0.276 0.224,-0.5 0.5,-0.5c0.276,0 0.5,0.224 0.5,0.5v29c0,0.276 -0.224,0.5 -0.5,0.5z" fill="#1f212b"></path><path d="M50.5,76c-0.276,0 -0.5,-0.224 -0.5,-0.5v-2c0,-0.276 0.224,-0.5 0.5,-0.5c0.276,0 0.5,0.224 0.5,0.5v2c0,0.276 -0.224,0.5 -0.5,0.5z" fill="#1f212b"></path><path d="M50.5,79c-0.276,0 -0.5,-0.224 -0.5,-0.5v-1c0,-0.276 0.224,-0.5 0.5,-0.5c0.276,0 0.5,0.224 0.5,0.5v1c0,0.276 -0.224,0.5 -0.5,0.5z" fill="#1f212b"></path><path d="M60.5,58.366c-0.231,0 -0.438,-0.161 -0.488,-0.396c-0.058,-0.27 0.114,-0.536 0.384,-0.593c3.336,-0.712 7.064,-1.175 11.08,-1.377c0.268,-0.022 0.51,0.198 0.524,0.475c0.014,0.275 -0.199,0.51 -0.475,0.524c-3.962,0.199 -7.636,0.655 -10.92,1.355c-0.036,0.009 -0.071,0.012 -0.105,0.012z" fill="#1f212b"></path><path d="M54.5,60.074c-0.203,0 -0.394,-0.124 -0.468,-0.325c-0.097,-0.259 0.035,-0.546 0.293,-0.643c0.602,-0.225 1.278,-0.457 2.027,-0.688c0.263,-0.081 0.543,0.066 0.625,0.33c0.082,0.264 -0.066,0.543 -0.33,0.625c-0.729,0.226 -1.387,0.451 -1.973,0.669c-0.057,0.022 -0.116,0.032 -0.174,0.032z" fill="#1f212b"></path><path d="M67.5,47.299c-0.254,0 -0.472,-0.192 -0.497,-0.451c-0.027,-0.275 0.173,-0.52 0.448,-0.547c1.351,-0.134 2.667,-0.232 4.024,-0.301c0.268,-0.025 0.51,0.199 0.524,0.475c0.014,0.275 -0.199,0.51 -0.475,0.524c-1.341,0.067 -2.641,0.165 -3.976,0.297c-0.015,0.002 -0.032,0.003 -0.048,0.003z" fill="#1f212b"></path><path d="M62.5,47.978c-0.238,0 -0.449,-0.171 -0.492,-0.413c-0.048,-0.272 0.133,-0.531 0.405,-0.579c0.964,-0.17 1.981,-0.323 3.023,-0.457c0.277,-0.029 0.525,0.159 0.56,0.433c0.035,0.274 -0.159,0.524 -0.433,0.56c-1.027,0.131 -2.029,0.282 -2.977,0.449c-0.028,0.005 -0.058,0.007 -0.086,0.007z" fill="#1f212b"></path><path d="M54.5,50.074c-0.203,0 -0.393,-0.124 -0.468,-0.325c-0.097,-0.258 0.035,-0.546 0.293,-0.643c1.517,-0.567 3.22,-1.073 5.061,-1.503c0.268,-0.062 0.538,0.104 0.601,0.373c0.063,0.269 -0.104,0.538 -0.373,0.601c-1.8,0.421 -3.461,0.915 -4.939,1.466c-0.058,0.021 -0.117,0.031 -0.175,0.031z" fill="#1f212b"></path><path d="M45.5,69.717c-0.053,0 -0.107,-0.008 -0.16,-0.026c-0.593,-0.201 -1.265,-0.402 -1.976,-0.602c-0.266,-0.075 -0.42,-0.351 -0.346,-0.617c0.075,-0.266 0.353,-0.42 0.617,-0.346c0.729,0.205 1.417,0.412 2.024,0.618c0.262,0.088 0.402,0.373 0.313,0.634c-0.069,0.208 -0.264,0.339 -0.472,0.339z" fill="#1f212b"></path><path d="M39.5,68.167c-0.032,0 -0.063,-0.003 -0.096,-0.009c-3.04,-0.59 -6.381,-0.98 -9.93,-1.158c-0.276,-0.014 -0.488,-0.249 -0.475,-0.524c0.014,-0.277 0.264,-0.494 0.524,-0.475c3.596,0.181 6.984,0.577 10.07,1.176c0.271,0.053 0.448,0.315 0.396,0.586c-0.045,0.238 -0.254,0.404 -0.489,0.404z" fill="#1f212b"></path><path d="M45.5,54.717c-0.053,0 -0.107,-0.008 -0.16,-0.026c-2.302,-0.779 -4.966,-1.412 -7.918,-1.881c-0.272,-0.043 -0.458,-0.299 -0.415,-0.572c0.043,-0.272 0.294,-0.46 0.572,-0.415c3.008,0.478 5.727,1.125 8.082,1.921c0.262,0.088 0.402,0.373 0.313,0.634c-0.071,0.208 -0.266,0.339 -0.474,0.339z" fill="#1f212b"></path><path d="M34.5,52.406c-0.019,0 -0.038,-0.001 -0.057,-0.003c-1.621,-0.184 -3.293,-0.319 -4.969,-0.403c-0.276,-0.014 -0.488,-0.249 -0.475,-0.524c0.013,-0.275 0.246,-0.487 0.524,-0.475c1.697,0.085 3.39,0.223 5.031,0.408c0.274,0.031 0.472,0.279 0.441,0.553c-0.027,0.255 -0.244,0.444 -0.495,0.444z" fill="#1f212b"></path><path d="M45.5,44.717c-0.053,0 -0.107,-0.008 -0.16,-0.026c-0.308,-0.104 -0.648,-0.209 -0.987,-0.313c-0.264,-0.082 -0.412,-0.361 -0.331,-0.625c0.081,-0.264 0.358,-0.414 0.625,-0.331c0.348,0.107 0.697,0.215 1.013,0.322c0.262,0.088 0.402,0.372 0.313,0.634c-0.07,0.208 -0.265,0.339 -0.473,0.339z" fill="#1f212b"></path><path d="M37.5,42.816c-0.026,0 -0.052,-0.002 -0.079,-0.006c-2.506,-0.398 -5.18,-0.671 -7.946,-0.81c-0.276,-0.014 -0.488,-0.249 -0.475,-0.524c0.014,-0.276 0.246,-0.49 0.524,-0.475c2.803,0.141 5.512,0.417 8.054,0.822c0.272,0.043 0.458,0.299 0.415,0.572c-0.038,0.246 -0.251,0.421 -0.493,0.421z" fill="#1f212b"></path><path d="M42.5,43.834c-0.042,0 -0.083,-0.005 -0.125,-0.016c-0.895,-0.23 -1.895,-0.452 -2.971,-0.661c-0.271,-0.052 -0.448,-0.315 -0.396,-0.586c0.052,-0.271 0.315,-0.447 0.586,-0.396c1.095,0.212 2.115,0.439 3.029,0.674c0.267,0.069 0.428,0.341 0.36,0.609c-0.057,0.227 -0.26,0.376 -0.483,0.376z" fill="#1f212b"></path></g></g></svg>