<svg xmlns="http://www.w3.org/2000/svg" xmlns:xlink="http://www.w3.org/1999/xlink" viewBox="0,0,256,256" width="48px" height="48px" fill-rule="nonzero"><g fill="none" fill-rule="nonzero" stroke="none" stroke-width="1" stroke-linecap="butt" stroke-linejoin="miter" stroke-miterlimit="10" stroke-dasharray="" stroke-dashoffset="0" font-family="none" font-weight="none" font-size="none" text-anchor="none" style="mix-blend-mode: normal"><g transform="scale(5.33333,5.33333)"><path d="M25.2,30.4l22.8,-4.6l-0.4,-2l-47.6,9.7l0.4,2l22.2,-4.5l-3.5,9.7c-0.1,0.3 -0.1,0.6 0.1,0.9c0.2,0.3 0.5,0.4 0.8,0.4h8c0.3,0 0.6,-0.2 0.8,-0.4c0.2,-0.3 0.2,-0.6 0.1,-0.9zM22.5,37l1.5,-4.1l1.5,4.1z" fill="#714eff"></path><path d="M38.5,9c1.9,0 3.5,1.6 3.5,3.5c0,1.9 -1.6,3.5 -3.5,3.5c-1.9,0 -3.5,-1.6 -3.5,-3.5c0,-1.9 1.6,-3.5 3.5,-3.5M5.5,16c-1.9,0 -3.5,1.6 -3.5,3.5c0,1.9 1.6,3.5 3.5,3.5c1.9,0 3.5,-1.6 3.5,-3.5c0,-1.9 -1.6,-3.5 -3.5,-3.5" fill="#b9a8ff"></path><path d="M43.4,25.8c-0.1,0.4 -0.5,0.8 -0.9,0.9l-3.4,1.2l1.2,2.5c0.4,0.7 0.1,1.6 -0.7,2c-0.2,0.1 -0.4,0.2 -0.7,0.2c-0.5,0 -1.1,-0.3 -1.3,-0.8l-2,-4c-0.2,-0.4 -0.2,-0.8 0,-1.2c0.2,-0.4 0.5,-0.7 0.9,-0.9l1.7,-0.6c0,-0.1 -0.1,-0.2 -0.1,-0.3l-1,-4c-0.4,-1.6 0.6,-3.2 2.2,-3.6c1.6,-0.4 3.2,0.6 3.6,2.2l1,4c0.2,0.8 0,1.7 -0.5,2.4zM12.6,29.6l-1.7,0.5l-0.9,-3.8c-0.4,-1.6 -2,-2.6 -3.6,-2.2c-1.6,0.4 -2.6,2 -2.2,3.6l1,4c0.2,1.4 1.5,2.3 2.8,2.3c0.2,0 0.5,0 0.7,-0.1c0.3,-0.1 0.5,-0.2 0.7,-0.3l1.6,-0.5l-0.5,2.6c-0.2,0.8 0.4,1.6 1.2,1.8c0.1,0 0.2,0 0.3,0c0.7,0 1.3,-0.5 1.5,-1.2l1,-5c0.1,-0.5 -0.1,-1 -0.5,-1.4c-0.4,-0.4 -0.9,-0.5 -1.4,-0.3z" fill="#b8a7ff"></path><path d="M24,26c-1.65685,0 -3,1.34315 -3,3c0,1.65685 1.34315,3 3,3c1.65685,0 3,-1.34315 3,-3c0,-1.65685 -1.34315,-3 -3,-3z" fill="#3200ff"></path></g></g></svg>