<svg xmlns="http://www.w3.org/2000/svg" xmlns:xlink="http://www.w3.org/1999/xlink" viewBox="0,0,256,256" width="100px" height="100px" fill-rule="nonzero"><g fill="none" fill-rule="nonzero" stroke="none" stroke-width="1" stroke-linecap="butt" stroke-linejoin="miter" stroke-miterlimit="10" stroke-dasharray="" stroke-dashoffset="0" font-family="none" font-weight="none" font-size="none" text-anchor="none" style="mix-blend-mode: normal"><g transform="scale(2.56,2.56)"><path d="M80,84h-60c-1.105,0 -2,-0.895 -2,-2v-57c0,-3.314 2.686,-6 6,-6h52c3.314,0 6,2.686 6,6v57c0,1.105 -0.895,2 -2,2z" fill="#fefdef"></path><path d="M76,19h-52c-3.314,0 -6,2.686 -6,6v9h64v-9c0,-3.314 -2.686,-6 -6,-6zM26.5,28.5c-1.105,0 -2,-0.895 -2,-2c0,-1.105 0.895,-2 2,-2c1.105,0 2,0.895 2,2c0,1.105 -0.895,2 -2,2zM73.5,28.5c-1.104,0 -2,-0.895 -2,-2c0,-1.105 0.896,-2 2,-2c1.104,0 2,0.895 2,2c0,1.105 -0.896,2 -2,2z" fill="#714eff"></path><path d="M80,85h-60c-1.654,0 -3,-1.346 -3,-3v-57c0,-3.859 3.141,-7 7,-7h52c3.859,0 7,3.141 7,7v57c0,1.654 -1.346,3 -3,3zM24,20c-2.757,0 -5,2.243 -5,5v57c0,0.552 0.448,1 1,1h60c0.552,0 1,-0.448 1,-1v-57c0,-2.757 -2.243,-5 -5,-5z" fill="#1f212b"></path><path d="M47,23c-0.553,0 -1,-0.447 -1,-1v-6c0,-0.553 0.447,-1 1,-1c0.553,0 1,0.447 1,1v6c0,0.553 -0.447,1 -1,1z" fill="#1f212b"></path><path d="M41,23c-0.553,0 -1,-0.447 -1,-1v-6c0,-0.553 0.447,-1 1,-1c0.553,0 1,0.447 1,1v6c0,0.553 -0.447,1 -1,1z" fill="#1f212b"></path><path d="M35,23c-0.553,0 -1,-0.447 -1,-1v-6c0,-0.553 0.447,-1 1,-1c0.553,0 1,0.447 1,1v6c0,0.553 -0.447,1 -1,1z" fill="#1f212b"></path><path d="M29,23c-0.553,0 -1,-0.447 -1,-1v-6c0,-0.553 0.447,-1 1,-1c0.553,0 1,0.447 1,1v6c0,0.553 -0.447,1 -1,1z" fill="#1f212b"></path><path d="M53,23c-0.553,0 -1,-0.447 -1,-1v-6c0,-0.553 0.447,-1 1,-1c0.553,0 1,0.447 1,1v6c0,0.553 -0.447,1 -1,1z" fill="#1f212b"></path><path d="M59,23c-0.553,0 -1,-0.447 -1,-1v-6c0,-0.553 0.447,-1 1,-1c0.553,0 1,0.447 1,1v6c0,0.553 -0.447,1 -1,1z" fill="#1f212b"></path><path d="M65,23c-0.553,0 -1,-0.447 -1,-1v-6c0,-0.553 0.447,-1 1,-1c0.553,0 1,0.447 1,1v6c0,0.553 -0.447,1 -1,1z" fill="#1f212b"></path><path d="M71,23c-0.553,0 -1,-0.447 -1,-1v-6c0,-0.553 0.447,-1 1,-1c0.553,0 1,0.447 1,1v6c0,0.553 -0.447,1 -1,1z" fill="#1f212b"></path><path d="M26.5,29c-1.379,0 -2.5,-1.121 -2.5,-2.5c0,-1.379 1.121,-2.5 2.5,-2.5c1.379,0 2.5,1.121 2.5,2.5c0,1.379 -1.121,2.5 -2.5,2.5zM26.5,25c-0.827,0 -1.5,0.673 -1.5,1.5c0,0.827 0.673,1.5 1.5,1.5c0.827,0 1.5,-0.673 1.5,-1.5c0,-0.827 -0.673,-1.5 -1.5,-1.5z" fill="#1f212b"></path><path d="M73.5,29c-1.379,0 -2.5,-1.121 -2.5,-2.5c0,-1.379 1.121,-2.5 2.5,-2.5c1.379,0 2.5,1.121 2.5,2.5c0,1.379 -1.121,2.5 -2.5,2.5zM73.5,25c-0.827,0 -1.5,0.673 -1.5,1.5c0,0.827 0.673,1.5 1.5,1.5c0.827,0 1.5,-0.673 1.5,-1.5c0,-0.827 -0.673,-1.5 -1.5,-1.5z" fill="#1f212b"></path><path d="M71.5,34h-53c-0.276,0 -0.5,-0.224 -0.5,-0.5c0,-0.276 0.224,-0.5 0.5,-0.5h53c0.276,0 0.5,0.224 0.5,0.5c0,0.276 -0.224,0.5 -0.5,0.5z" fill="#1f212b"></path><path d="M75.5,34h-2c-0.276,0 -0.5,-0.224 -0.5,-0.5c0,-0.276 0.224,-0.5 0.5,-0.5h2c0.276,0 0.5,0.224 0.5,0.5c0,0.276 -0.224,0.5 -0.5,0.5z" fill="#1f212b"></path><path d="M81.5,34h-4c-0.276,0 -0.5,-0.224 -0.5,-0.5c0,-0.276 0.224,-0.5 0.5,-0.5h4c0.276,0 0.5,0.224 0.5,0.5c0,0.276 -0.224,0.5 -0.5,0.5z" fill="#1f212b"></path><path d="M47.501,70.501c-0.48,0 -0.965,-0.172 -1.348,-0.52l-12,-12c-0.816,-0.742 -0.875,-2.008 -0.133,-2.828c0.742,-0.813 2.008,-0.875 2.824,-0.133l10.629,10.754l17.652,-17.727c0.805,-0.762 2.066,-0.727 2.828,0.078c0.758,0.805 0.723,2.07 -0.082,2.828l-19,19c-0.382,0.365 -0.878,0.548 -1.37,0.548z" fill="#714eff"></path><path d="M47.499,71c-0.625,0 -1.223,-0.23 -1.684,-0.652l-12.015,-12.016c-0.477,-0.43 -0.766,-1.047 -0.797,-1.715c-0.031,-0.664 0.195,-1.305 0.645,-1.801c0.93,-1.016 2.516,-1.09 3.531,-0.164l10.293,10.41l17.301,-17.371c0.496,-0.469 1.148,-0.695 1.797,-0.691c0.668,0.02 1.289,0.297 1.746,0.781c0.461,0.488 0.703,1.121 0.684,1.789c-0.019,0.668 -0.297,1.289 -0.785,1.746l-18.99,18.993c-0.476,0.449 -1.085,0.691 -1.726,0.691zM35.507,55c-0.406,0 -0.82,0.164 -1.117,0.492c-0.27,0.297 -0.406,0.68 -0.387,1.078c0.016,0.402 0.191,0.77 0.484,1.039l12.02,12.02c0.527,0.477 1.469,0.48 2.023,-0.039l18.988,-18.988c0.301,-0.285 0.469,-0.656 0.48,-1.059c0.012,-0.398 -0.137,-0.781 -0.41,-1.07c-0.273,-0.293 -0.648,-0.461 -1.05,-0.473c-0.391,-0.02 -0.777,0.133 -1.07,0.41l-17.641,17.715c-0.094,0.094 -0.223,0.148 -0.355,0.148c-0.132,0 -0.262,-0.055 -0.355,-0.148l-10.63,-10.754c-0.273,-0.25 -0.625,-0.371 -0.98,-0.371z" fill="#1f212b"></path></g></g></svg>