<svg xmlns="http://www.w3.org/2000/svg" xmlns:xlink="http://www.w3.org/1999/xlink" viewBox="0,0,256,256" width="48px" height="48px" fill-rule="nonzero"><g fill="none" fill-rule="nonzero" stroke="none" stroke-width="1" stroke-linecap="butt" stroke-linejoin="miter" stroke-miterlimit="10" stroke-dasharray="" stroke-dashoffset="0" font-family="none" font-weight="none" font-size="none" text-anchor="none" style="mix-blend-mode: normal"><g transform="scale(5.33333,5.33333)"><path d="M19.824,34.828l-5.495,-16.288c-0.529,-1.649 -1.5,-3.54 -4.334,-3.54c-2.899,0 -3.881,2.025 -4.364,3.536l-5.428,16.284c-0.365,1.056 -0.231,2.179 0.357,3.006c0.531,0.746 1.385,1.174 2.344,1.174c1.524,0 2.558,-0.868 3.074,-2.59l0.701,-2.41h6.602l0.743,2.445c0.56,1.696 1.58,2.555 3.03,2.555c0.97,0 1.802,-0.4 2.343,-1.127c0.599,-0.805 0.762,-1.931 0.427,-3.045zM8.292,29l1.704,-5.424l1.733,5.424z" fill="#ff994e"></path><path d="M39.774,40c-6.822,0 -11.774,-5.054 -11.774,-12.016c0,-6.944 4.952,-11.984 11.774,-11.984c2.5,0 4.633,0.579 6.439,1.823c1.203,0.831 1.787,1.777 1.787,2.892c0,1.51 -1.123,2.647 -2.613,2.647c-1.014,0 -1.761,-0.457 -2.361,-0.825c-0.919,-0.585 -1.835,-0.919 -3.188,-0.919c-3.493,0 -5.839,2.559 -5.839,6.366c0,3.826 2.347,6.397 5.839,6.397c1.474,0 2.256,-0.311 3.184,-0.884c0.581,-0.377 1.327,-0.86 2.333,-0.86c1.483,0 2.645,1.177 2.645,2.68c0,1.128 -0.599,2.076 -1.832,2.899c-1.664,1.163 -3.881,1.784 -6.394,1.784z" fill="#ff4ef7"></path><path d="M23.34,34h-5.311c-1.755,0 -3.029,-1.249 -3.029,-2.97v-18.093c0,-1.702 1.274,-2.937 3.029,-2.937h4.77c7.369,0 8.916,3.848 8.916,7.075c0,1.665 -0.626,3.149 -1.792,4.308c1.974,1.204 3.077,3.05 3.077,5.241c0,4.895 -3.25,7.376 -9.66,7.376zM21.059,28.495h2.586c2.981,0 3.228,-0.948 3.228,-2.005c0,-0.58 0,-1.938 -3.262,-1.938h-2.552zM21,19h2.011c2.302,0 2.678,-0.959 2.678,-2c0,-1.021 -0.285,-2 -3.016,-2h-1.673z" fill="#714eff"></path></g></g></svg>