<svg xmlns="http://www.w3.org/2000/svg" xmlns:xlink="http://www.w3.org/1999/xlink" viewBox="0,0,256,256" width="100px" height="100px" fill-rule="nonzero"><g fill="none" fill-rule="nonzero" stroke="none" stroke-width="1" stroke-linecap="butt" stroke-linejoin="miter" stroke-miterlimit="10" stroke-dasharray="" stroke-dashoffset="0" font-family="none" font-weight="none" font-size="none" text-anchor="none" style="mix-blend-mode: normal"><g transform="scale(2.56,2.56)"><path d="M82.5,72h-14.5l-4.94,-10.977c-2.358,-5.24 -8.099,-8.073 -13.692,-6.757l0.248,0.734h-14.232l0.249,-0.273l-7.802,-1.56c-5.785,-1.158 -11.297,-0.043 -11.831,5.833v0.001c0,2.62 0.683,5.196 1.982,7.471l2.045,3.582c0.461,0.923 -0.169,2.017 -1.198,2.081l-8.995,0.562c-2.717,0.171 -4.834,2.424 -4.834,5.147c0,2.848 2.308,5.156 5.156,5.156h12.844c4.594,0 8.376,-3.444 8.924,-7.889c7.572,3.135 25.156,0.053 26.03,-0.103c0.452,0.877 0.876,1.74 1.223,2.522c1.395,3.148 4.146,5.47 7.589,5.47h15.734c3.038,0 5.5,-2.462 5.5,-5.5c0,-3.038 -2.462,-5.5 -5.5,-5.5z" fill="#fff2e8"></path><path d="M19,68h12l1,6l3,1h1v-19c0,0 -8,-4 -14,-3c0,0 -11,2 -3,15z" fill="#714eff"></path><circle cx="79" cy="55" r="12" fill="#fff2e8"></circle><path d="M47.946,51.361l-11.5,-19.919l-0.446,-16.442h-13l3.054,22.443l11.5,19.919c1.657,2.87 5.326,3.853 8.196,2.196c2.87,-1.657 3.853,-5.327 2.196,-8.197z" fill="#fff2e8"></path><path d="M79,68c-7.168,0 -13,-5.832 -13,-13c0,-7.168 5.832,-13 13,-13c7.168,0 13,5.832 13,13c0,7.168 -5.832,13 -13,13zM79,44c-6.065,0 -11,4.935 -11,11c0,6.065 4.935,11 11,11c6.065,0 11,-4.935 11,-11c0,-6.065 -4.935,-11 -11,-11z" fill="#1f212b"></path><path d="M85.33,58.205c-1.065,0 -1.821,-0.489 -2.308,-0.977c-0.701,-0.7 -0.984,-1.535 -0.996,-1.57c-0.087,-0.262 0.054,-0.543 0.314,-0.631c0.26,-0.09 0.544,0.052 0.633,0.313c0.088,0.258 0.926,2.499 3.368,1.686c0.265,-0.089 0.545,0.056 0.632,0.316c0.087,0.262 -0.054,0.545 -0.316,0.633c-0.487,0.162 -0.929,0.23 -1.327,0.23z" fill="#1f212b"></path><path d="M52.061,60.621c-0.054,0 -0.109,-0.009 -0.164,-0.027c-0.261,-0.091 -0.399,-0.376 -0.309,-0.637c0.273,-0.788 0.412,-1.615 0.412,-2.457c0,-0.276 0.224,-0.5 0.5,-0.5c0.276,0 0.5,0.224 0.5,0.5c0,0.954 -0.157,1.891 -0.467,2.785c-0.072,0.206 -0.265,0.336 -0.472,0.336z" fill="#1f212b"></path><path d="M44.5,66c-0.276,0 -0.5,-0.224 -0.5,-0.5c0,-0.276 0.224,-0.5 0.5,-0.5c2.54,0 4.888,-1.271 6.281,-3.398c0.152,-0.231 0.461,-0.296 0.692,-0.145c0.231,0.15 0.296,0.461 0.145,0.691c-1.579,2.413 -4.24,3.852 -7.118,3.852z" fill="#1f212b"></path><path d="M82.5,71h-13.854l-4.674,-10.388c-2.478,-5.507 -8.445,-8.554 -14.328,-7.415c-0.134,-0.801 -0.403,-1.593 -0.832,-2.336l-11.374,-19.7l-0.438,-15.19c-0.016,-0.552 -0.479,-0.988 -1.028,-0.971c-0.552,0.017 -0.987,0.477 -0.971,1.029l0.454,15.694l11.625,20.138c1.378,2.388 0.557,5.451 -1.83,6.83c-2.388,1.377 -5.453,0.558 -6.83,-1.83l-11.403,-19.751l-3.027,-21.251c-0.079,-0.548 -0.59,-0.929 -1.131,-0.85c-0.547,0.078 -0.927,0.584 -0.849,1.131l3.081,21.634l9.023,15.629l-6.086,-1.217c-3.044,-0.608 -7.285,-0.878 -10.205,1.304c-1.656,1.236 -2.604,3.061 -2.823,5.512c0,2.79 0.731,5.546 2.114,7.968l2.019,3.533c0.092,0.184 0.032,0.34 -0.012,0.416c-0.044,0.076 -0.148,0.207 -0.354,0.22l-8.995,0.561c-3.237,0.202 -5.772,2.902 -5.772,6.144c0,3.394 2.762,6.156 6.156,6.156h12.844c4.75,0 8.728,-3.331 9.742,-7.778c1.743,0.404 5.605,1.12 11.065,1.12c3.764,0 8.287,-0.342 13.389,-1.362c0.04,-0.008 0.07,-0.033 0.108,-0.045c0.353,0.697 0.682,1.377 0.958,2c1.658,3.741 4.917,6.065 8.504,6.065h15.734c3.584,0 6.5,-2.916 6.5,-6.5c0,-3.584 -2.916,-6.5 -6.5,-6.5zM82.5,82h-15.734c-2.827,0 -5.322,-1.822 -6.675,-4.875c-1.696,-3.827 -5.093,-9.41 -5.237,-9.646c-0.287,-0.473 -0.902,-0.622 -1.374,-0.333c-0.472,0.287 -0.621,0.902 -0.333,1.374c0.023,0.039 1.65,2.712 3.2,5.584c-9.063,1.75 -16.265,1.27 -20.347,0.674v-2.278c0,-0.276 -0.224,-0.5 -0.5,-0.5c-0.276,0 -0.5,0.224 -0.5,0.5v2.121c-0.876,-0.149 -1.553,-0.293 -2.011,-0.4c0.001,-0.075 0.011,-0.147 0.011,-0.221v-0.679c0,-0.973 -0.142,-1.939 -0.421,-2.874l-2.621,-8.734c-0.159,-0.529 -0.714,-0.826 -1.246,-0.671c-0.529,0.159 -0.829,0.717 -0.67,1.245l1.414,4.713h-2.956c-0.276,0 -0.5,0.224 -0.5,0.5c0,0.276 0.224,0.5 0.5,0.5h3.256l0.906,3.021c0.224,0.747 0.337,1.521 0.337,2.3v0.679c0,4.411 -3.589,8 -8,8h-12.843c-2.292,0 -4.156,-1.864 -4.156,-4.156c0,-2.189 1.712,-4.011 3.897,-4.147l8.995,-0.563c0.819,-0.052 1.553,-0.507 1.962,-1.218c0.41,-0.712 0.435,-1.574 0.042,-2.357l-0.89,-1.559h4.494c0.276,0 0.5,-0.224 0.5,-0.5c0,-0.276 -0.224,-0.5 -0.5,-0.5h-5.065l-0.584,-1.023c-1.21,-2.12 -1.851,-4.533 -1.854,-6.886c0.161,-1.771 0.841,-3.117 2.023,-3.999c1.817,-1.357 4.878,-1.694 8.616,-0.945l7.364,1.473v14.88c0,0.276 0.224,0.5 0.5,0.5c0.276,0 0.5,-0.224 0.5,-0.5v-13.83l0.688,1.191c1.295,2.243 3.653,3.498 6.075,3.498c1.187,0 2.389,-0.302 3.488,-0.936c1.971,-1.139 3.172,-3.099 3.436,-5.2c5.091,-1.154 10.319,1.445 12.462,6.209l5.205,11.568h15.146c2.481,0 4.5,2.019 4.5,4.5c0,2.481 -2.019,4.5 -4.5,4.5z" fill="#1f212b"></path></g></g></svg>