<svg xmlns="http://www.w3.org/2000/svg" xmlns:xlink="http://www.w3.org/1999/xlink" viewBox="0,0,256,256" width="80px" height="80px" fill-rule="nonzero"><g fill="none" fill-rule="nonzero" stroke="none" stroke-width="1" stroke-linecap="butt" stroke-linejoin="miter" stroke-miterlimit="10" stroke-dasharray="" stroke-dashoffset="0" font-family="none" font-weight="none" font-size="none" text-anchor="none" style="mix-blend-mode: normal"><g transform="scale(3.2,3.2)"><path d="M11.546,76.5c-2.149,0 -4.17,-0.837 -5.689,-2.356c-3.137,-3.137 -3.137,-8.242 0,-11.379c1.854,-1.854 4.87,-3.365 7.786,-4.826c3.036,-1.521 6.176,-3.093 8.208,-5.125l12.106,-12.106l5.336,5.335l-12.106,12.106c-2.653,2.652 -4.016,5.626 -5.333,8.502c-1.248,2.726 -2.428,5.301 -4.618,7.492c-1.52,1.52 -3.542,2.357 -5.69,2.357z" fill="#c4a3ff"></path><path d="M33.957,41.414l4.629,4.629l-11.753,11.753c-2.716,2.716 -4.097,5.731 -5.433,8.647c-1.229,2.684 -2.391,5.219 -4.518,7.347c-1.425,1.425 -3.32,2.21 -5.336,2.21c-2.016,0 -3.911,-0.785 -5.336,-2.21c-2.942,-2.942 -2.942,-7.729 0,-10.671c1.797,-1.797 4.776,-3.289 7.657,-4.733c3.072,-1.539 6.248,-3.13 8.337,-5.219l11.753,-11.753M33.957,40l-12.46,12.46c-3.928,3.928 -12.15,6.107 -15.994,9.951c-3.337,3.337 -3.337,8.748 0,12.086c1.669,1.669 3.856,2.503 6.043,2.503c2.187,0 4.374,-0.834 6.043,-2.503c4.616,-4.616 4.89,-10.933 9.951,-15.994c1.828,-1.829 12.46,-12.46 12.46,-12.46l-6.043,-6.043z" fill="#7121fe"></path><path d="M52,52.5c-13.51,0 -24.5,-10.991 -24.5,-24.5c0,-13.509 10.99,-24.5 24.5,-24.5c13.51,0 24.5,10.991 24.5,24.5c0,13.509 -10.99,24.5 -24.5,24.5z" fill="#9074ff"></path><path d="M52,4c13.234,0 24,10.766 24,24c0,13.234 -10.766,24 -24,24c-13.234,0 -24,-10.766 -24,-24c0,-13.234 10.766,-24 24,-24M52,3c-13.807,0 -25,11.193 -25,25c0,13.807 11.193,25 25,25c13.807,0 25,-11.193 25,-25c0,-13.807 -11.193,-25 -25,-25z" fill="#714eff"></path><path d="M70,6.5c-1.933,0 -3.5,1.567 -3.5,3.5c0,1.933 1.567,3.5 3.5,3.5c1.933,0 3.5,-1.567 3.5,-3.5c0,-1.933 -1.567,-3.5 -3.5,-3.5z" fill="#c4a3ff"></path><path d="M70,7c1.654,0 3,1.346 3,3c0,1.654 -1.346,3 -3,3c-1.654,0 -3,-1.346 -3,-3c0,-1.654 1.346,-3 3,-3M70,6c-2.209,0 -4,1.791 -4,4c0,2.209 1.791,4 4,4c2.209,0 4,-1.791 4,-4c0,-2.209 -1.791,-4 -4,-4z" fill="#7121fe"></path><path d="M31.491,14.64c1.853,-2.837 4.312,-5.297 7.148,-7.149l33.87,33.869c-1.853,2.837 -4.312,5.297 -7.148,7.149z" fill="#c4a3ff"></path><path d="M38.576,8.134l33.29,33.29c-1.712,2.525 -3.917,4.731 -6.442,6.443l-33.29,-33.29c1.712,-2.526 3.917,-4.732 6.442,-6.443M38.709,6.852c-3.173,1.998 -5.858,4.684 -7.857,7.857l34.439,34.439c3.173,-1.998 5.858,-4.684 7.857,-7.857l-34.439,-34.439z" fill="#7121fe"></path><g><path d="M52,25.5c-1.38071,0 -2.5,1.11929 -2.5,2.5c0,1.38071 1.11929,2.5 2.5,2.5c1.38071,0 2.5,-1.11929 2.5,-2.5c0,-1.38071 -1.11929,-2.5 -2.5,-2.5z" fill="#9074ff"></path><path d="M52,26c1.103,0 2,0.897 2,2c0,1.103 -0.897,2 -2,2c-1.103,0 -2,-0.897 -2,-2c0,-1.103 0.897,-2 2,-2M52,25c-1.657,0 -3,1.343 -3,3c0,1.657 1.343,3 3,3c1.657,0 3,-1.343 3,-3c0,-1.657 -1.343,-3 -3,-3z" fill="#714eff"></path></g><g><path d="M42,15.5c-1.38071,0 -2.5,1.11929 -2.5,2.5c0,1.38071 1.11929,2.5 2.5,2.5c1.38071,0 2.5,-1.11929 2.5,-2.5c0,-1.38071 -1.11929,-2.5 -2.5,-2.5z" fill="#9074ff"></path><path d="M42,16c1.103,0 2,0.897 2,2c0,1.103 -0.897,2 -2,2c-1.103,0 -2,-0.897 -2,-2c0,-1.103 0.897,-2 2,-2M42,15c-1.657,0 -3,1.343 -3,3c0,1.657 1.343,3 3,3c1.657,0 3,-1.343 3,-3c0,-1.657 -1.343,-3 -3,-3z" fill="#714eff"></path></g><g><path d="M63,36.5c-1.38071,0 -2.5,1.11929 -2.5,2.5c0,1.38071 1.11929,2.5 2.5,2.5c1.38071,0 2.5,-1.11929 2.5,-2.5c0,-1.38071 -1.11929,-2.5 -2.5,-2.5z" fill="#9074ff"></path><path d="M63,37c1.103,0 2,0.897 2,2c0,1.103 -0.897,2 -2,2c-1.103,0 -2,-0.897 -2,-2c0,-1.103 0.897,-2 2,-2M63,36c-1.657,0 -3,1.343 -3,3c0,1.657 1.343,3 3,3c1.657,0 3,-1.343 3,-3c0,-1.657 -1.343,-3 -3,-3z" fill="#714eff"></path></g></g></g></svg>