<svg xmlns="http://www.w3.org/2000/svg" xmlns:xlink="http://www.w3.org/1999/xlink" viewBox="0,0,256,256" width="64px" height="64px" fill-rule="nonzero"><g fill="none" fill-rule="nonzero" stroke="none" stroke-width="1" stroke-linecap="butt" stroke-linejoin="miter" stroke-miterlimit="10" stroke-dasharray="" stroke-dashoffset="0" font-family="none" font-weight="none" font-size="none" text-anchor="none" style="mix-blend-mode: normal"><g transform="scale(0.5,0.5)"><g><path d="M404,11h-306v490h306c17.78357,0 32.2,-14.41643 32.2,-32.2v-425.6c0,-17.78357 -14.41643,-32.2 -32.2,-32.2zM381,144.4c0.00412,19.63243 -10.36596,37.80573 -27.27,47.79v67.34v0v31.41c0,9.55615 -7.74386,17.30448 -17.3,17.31h-138.69c-9.55614,-0.00552 -17.3,-7.75385 -17.3,-17.31v-31.41v0v-67.34c-16.90404,-9.98427 -27.27412,-28.15757 -27.27,-47.79v0c0.0081,-28.81731 22.05875,-52.8398 50.77,-55.31v0c9.44905,-26.75787 34.74275,-44.65033 63.12,-44.65033c28.37725,0 53.67095,17.89246 63.12,44.65033v0c28.7272,2.44542 50.80448,26.4689 50.82,55.3z" fill="#ac98ff"></path><path d="M404,507h-339.42c-21.08586,-0.02755 -38.17245,-17.11414 -38.2,-38.2v-194.61c0,-3.31371 2.68629,-6 6,-6c3.31371,0 6,2.68629 6,6v194.61c0.02203,14.46073 11.73927,26.17797 26.2,26.2h339.42c14.46691,-0.01102 26.19346,-11.73309 26.21,-26.2v-425.59c-0.01103,-14.47081 -11.73919,-26.19897 -26.21,-26.21h-339.42c-14.46691,0.01654 -26.18898,11.74309 -26.2,26.21v184.18c0,3.31371 -2.68629,6 -6,6c-3.31371,0 -6,-2.68629 -6,-6v-184.18c0.02204,-21.08976 17.11024,-38.18244 38.2,-38.21h339.42c21.09366,0.02205 38.18795,17.11634 38.21,38.21v425.59c-0.02756,21.08976 -17.12024,38.17796 -38.21,38.2z" fill="#714eff"></path><path d="M32.38,261.29c-3.31371,0 -6,-2.68629 -6,-6v-9c0,-3.31371 2.68629,-6 6,-6c3.31371,0 6,2.68629 6,6v9c0,3.31371 -2.68629,6 -6,6z" fill="#714eff"></path><path d="M404,507h-306c-3.31371,0 -6,-2.68629 -6,-6v-490c0,-3.31371 2.68629,-6 6,-6h306c21.08586,0.02755 38.17245,17.11414 38.2,38.2v425.6c-0.02755,21.08586 -17.11414,38.17245 -38.2,38.2zM104,495h300c14.46301,-0.01653 26.18347,-11.73699 26.2,-26.2v-425.6c-0.01653,-14.46301 -11.73699,-26.18347 -26.2,-26.2h-300z" fill="#714eff"></path><path d="M470.67,182.34h-34.5c-3.31371,0 -6,-2.68629 -6,-6v-53.8c0,-3.31371 2.68629,-6 6,-6h34.5c5.81654,0.00145 11.10273,3.38082 13.54565,8.65949c2.44291,5.27867 1.59777,11.49555 -2.16565,15.93051l-5.46,6.42c-0.93124,1.09172 -0.93124,2.69828 0,3.79l5.46,6.41c3.76342,4.43496 4.60856,10.65185 2.16565,15.93051c-2.44291,5.27867 -7.7291,8.65803 -13.54565,8.65949zM442.17,170.34h28.5c1.14257,0.00498 2.18308,-0.6569 2.66284,-1.69388c0.47976,-1.03698 0.31063,-2.25851 -0.43284,-3.12612l-5.45,-6.41c-4.75913,-5.56454 -4.75913,-13.76546 0,-19.33l5.45,-6.42c0.74347,-0.86761 0.91261,-2.08914 0.43284,-3.12612c-0.47976,-1.03698 -1.52027,-1.69886 -2.66284,-1.69388h-28.5z" fill="#714eff"></path><path d="M470.67,293.32h-34.5c-3.31371,0 -6,-2.68629 -6,-6v-53.8c0,-3.31371 2.68629,-6 6,-6h34.5c5.81654,0.00145 11.10273,3.38082 13.54565,8.65949c2.44291,5.27867 1.59777,11.49555 -2.16565,15.93051l-5.46,6.42c-0.93124,1.09172 -0.93124,2.69828 0,3.79l5.46,6.41c3.76342,4.43496 4.60856,10.65185 2.16565,15.93051c-2.44291,5.27867 -7.7291,8.65803 -13.54565,8.65949zM442.17,281.32h28.5c1.14257,0.00498 2.18308,-0.6569 2.66284,-1.69388c0.47976,-1.03698 0.31063,-2.25851 -0.43284,-3.12612l-5.45,-6.41c-4.75913,-5.56454 -4.75913,-13.76546 0,-19.33l5.45,-6.42c0.74347,-0.86761 0.91261,-2.08914 0.43284,-3.12612c-0.47976,-1.03698 -1.52027,-1.69886 -2.66284,-1.69388h-28.5z" fill="#714eff"></path><path d="M336.4,314.25h-138.66c-12.86528,-0.01654 -23.28898,-10.44471 -23.3,-23.31v-31.42c0,-3.31371 2.68629,-6 6,-6h173.26c3.31371,0 6,2.68629 6,6v31.42c-0.01102,12.86529 -10.43472,23.29346 -23.3,23.31zM186.4,265.52v25.42c0.0055,6.24016 5.05985,11.29898 11.3,11.31h138.7c6.24015,-0.01102 11.2945,-5.06984 11.3,-11.31v-25.42z" fill="#714eff"></path><path d="M353.7,265.53h-173.27c-3.31371,0 -6,-2.68629 -6,-6v-64c-21.68456,-14.54097 -31.82903,-41.18552 -25.30587,-66.46611c6.52315,-25.28059 28.29297,-43.69029 54.30587,-45.92389c3.31371,-0.27614 6.22386,2.18629 6.5,5.5c0.27614,3.31371 -2.18629,6.22386 -5.5,6.5c-21.48186,1.81459 -39.32021,17.32119 -44.10689,38.34143c-4.78668,21.02025 4.57877,42.72163 23.15689,53.65857c1.82527,1.0822 2.94317,3.04803 2.94,5.17v61.34h161.28v-61.46c-0.00108,-2.12401 1.12089,-4.0903 2.95,-5.17c18.56496,-10.94504 27.9196,-32.64027 23.13452,-53.65347c-4.78507,-21.01321 -22.61101,-36.51894 -44.08452,-38.34653c-3.31371,-0.27614 -5.77614,-3.18629 -5.5,-6.5c0.27614,-3.31371 3.18629,-5.77614 6.5,-5.5c26.02011,2.22209 47.80069,20.63225 54.3254,45.91885c6.5247,25.2866 -3.62896,51.93676 -25.3254,66.47115v64c0.03225,1.61199 -0.58563,3.16912 -1.71436,4.32043c-1.12873,1.15131 -2.67333,1.79989 -4.28564,1.79957z" fill="#714eff"></path><path d="M334,115.4c-3.24844,0.0013 -5.90796,-2.58287 -6,-5.83c-0.94448,-32.963 -27.93847,-59.19461 -60.915,-59.19461c-32.97653,0 -59.97052,26.23161 -60.915,59.19461c-0.09665,3.31371 -2.86129,5.92165 -6.175,5.825c-3.31371,-0.09665 -5.92165,-2.86129 -5.825,-6.175c1.13189,-39.45282 33.44094,-70.84823 72.91,-70.84823c39.46906,0 71.77811,31.39541 72.91,70.84823c0.04573,1.59148 -0.54295,3.13588 -1.63643,4.29312c-1.09347,1.15724 -2.60206,1.83243 -4.19357,1.87688z" fill="#714eff"></path><path d="M373.62,360.22h-213.1c-3.31371,0 -6,-2.68629 -6,-6c0,-3.31371 2.68629,-6 6,-6h213.1c3.31371,0 6,2.68629 6,6c0,3.31371 -2.68629,6 -6,6z" fill="#714eff"></path><path d="M339.06,424.43h-144c-3.31371,0 -6,-2.68629 -6,-6c0,-3.31371 2.68629,-6 6,-6h144c3.31371,0 6,2.68629 6,6c0,3.31371 -2.68629,6 -6,6z" fill="#714eff"></path><path d="M312.4,196.83c-2.98973,0.01002 -5.53065,-2.18255 -5.95839,-5.14154c-0.42774,-2.95899 1.38822,-5.78139 4.25839,-6.61846c3.36186,-1.11897 6.28197,-3.27579 8.34,-6.16c2.49047,-3.25566 3.77668,-7.27329 3.64,-11.37c-0.27614,-3.31371 2.18629,-6.22386 5.5,-6.5c3.31371,-0.27614 6.22386,2.18629 6.5,5.5c0.36687,7.00784 -1.75865,13.91935 -6,19.51c-3.61424,4.95829 -8.71419,8.63615 -14.56,10.5c-0.55665,0.17654 -1.1361,0.27087 -1.72,0.28z" fill="#714eff"></path><path d="M221.74,196.83c-0.57908,-0.00038 -1.15505,-0.08458 -1.71,-0.25c-5.84707,-1.86133 -10.94775,-5.53971 -14.56,-10.5c-4.25076,-5.58583 -6.37737,-12.50086 -6,-19.51c0.27614,-3.31371 3.18629,-5.77614 6.5,-5.5c3.31371,0.27614 5.77614,3.18629 5.5,6.5c-0.13668,4.09671 1.14953,8.11434 3.64,11.37c2.05803,2.88421 4.97814,5.04103 8.34,6.16c2.87017,0.83707 4.68614,3.65947 4.25839,6.61846c-0.42774,2.95899 -2.96866,5.15157 -5.95839,5.14154z" fill="#714eff"></path><path d="M267.07,199.34c-3.31371,0 -6,-2.68629 -6,-6v-28.8c0,-3.31371 2.68629,-6 6,-6c3.31371,0 6,2.68629 6,6v28.8c0,3.31371 -2.68629,6 -6,6z" fill="#714eff"></path></g></g></g></svg>