<svg xmlns="http://www.w3.org/2000/svg" xmlns:xlink="http://www.w3.org/1999/xlink" viewBox="0,0,256,256" width="40px" height="40px" fill-rule="nonzero"><g fill="none" fill-rule="nonzero" stroke="none" stroke-width="1" stroke-linecap="butt" stroke-linejoin="miter" stroke-miterlimit="10" stroke-dasharray="" stroke-dashoffset="0" font-family="none" font-weight="none" font-size="none" text-anchor="none" style="mix-blend-mode: normal"><g transform="scale(6.4,6.4)"><path d="M12.5,38.5c-0.831,0 -1.604,-0.332 -2.177,-0.936c-0.571,-0.603 -0.862,-1.392 -0.819,-2.222l0.836,-15.866l-0.425,-0.085c-2.558,-0.511 -4.415,-2.779 -4.415,-5.391v-11.5c0,-0.551 0.448,-1 1,-1c0.552,0 1,0.449 1,1v8h2v-8c0,-0.551 0.448,-1 1,-1c0.552,0 1,0.449 1,1v8h2v-8c0,-0.551 0.448,-1 1,-1c0.552,0 1,0.449 1,1v8h2v-8c0,-0.551 0.448,-1 1,-1c0.552,0 1,0.449 1,1v11.5c0,2.612 -1.857,4.88 -4.415,5.392l-0.425,0.085l0.836,15.866c0.043,0.83 -0.248,1.619 -0.819,2.222c-0.573,0.603 -1.346,0.935 -2.177,0.935z" fill="#bfafff" stroke="none"></path><path d="M18.5,2c0.276,0 0.5,0.224 0.5,0.5v7.5v2v2c0,2.375 -1.688,4.436 -4.013,4.902l-0.848,0.17l0.045,0.864l0.812,15.434c0.036,0.692 -0.206,1.349 -0.683,1.852c-0.476,0.501 -1.12,0.778 -1.813,0.778c-0.693,0 -1.337,-0.277 -1.814,-0.779c-0.477,-0.503 -0.719,-1.16 -0.683,-1.852l0.812,-15.434l0.045,-0.864l-0.848,-0.17c-2.324,-0.465 -4.012,-2.526 -4.012,-4.901v-2v-2v-7.5c0,-0.276 0.224,-0.5 0.5,-0.5c0.276,0 0.5,0.224 0.5,0.5v7.5v1h1h1h1v-1v-7.5c0,-0.276 0.224,-0.5 0.5,-0.5c0.276,0 0.5,0.224 0.5,0.5v7.5v1h1h1h1v-1v-7.5c0,-0.276 0.224,-0.5 0.5,-0.5c0.276,0 0.5,0.224 0.5,0.5v7.5v1h1h1h1v-1v-7.5c0,-0.276 0.224,-0.5 0.5,-0.5M18.5,1c-0.828,0 -1.5,0.672 -1.5,1.5v7.5h-1v-7.5c0,-0.828 -0.672,-1.5 -1.5,-1.5c-0.828,0 -1.5,0.672 -1.5,1.5v7.5h-1v-7.5c0,-0.828 -0.672,-1.5 -1.5,-1.5c-0.828,0 -1.5,0.672 -1.5,1.5v7.5h-1v-7.5c0,-0.828 -0.672,-1.5 -1.5,-1.5c-0.828,0 -1.5,0.672 -1.5,1.5v7.5v2v2c0,2.909 2.07,5.333 4.817,5.882l-0.812,15.434c-0.105,2.003 1.49,3.684 3.495,3.684c2.005,0 3.6,-1.681 3.495,-3.684l-0.812,-15.434c2.747,-0.549 4.817,-2.973 4.817,-5.882v-2v-2v-7.5c0,-0.828 -0.672,-1.5 -1.5,-1.5z" fill="#714eff" stroke="none"></path><path d="M30.5,38.5c-0.831,0 -1.604,-0.332 -2.177,-0.936c-0.571,-0.603 -0.862,-1.392 -0.819,-2.222l0.642,-10.842h-2.146c-1.379,0 -2.5,-1.122 -2.5,-2.5v-10c0,-5.622 4.441,-10.227 10,-10.488v23.488l-0.005,10.316c0.044,0.856 -0.247,1.645 -0.818,2.248c-0.573,0.604 -1.346,0.936 -2.177,0.936z" fill="#bfafff" stroke="none"></path><path d="M33,2.05v21.95h-0.002v1l-0.003,10.316v0.026l0.001,0.026c0.036,0.692 -0.206,1.349 -0.683,1.852c-0.476,0.503 -1.12,0.78 -1.813,0.78c-0.693,0 -1.337,-0.277 -1.814,-0.779c-0.477,-0.503 -0.719,-1.16 -0.683,-1.846l0.61,-10.316l0.063,-1.059h-1.061h-1.615c-1.103,0 -2,-0.897 -2,-2v-10c0,-5.176 3.954,-9.447 9,-9.95M34,1c-6.075,0 -11,4.925 -11,11v10c0,1.657 1.343,3 3,3h1.615l-0.61,10.316c-0.105,2.003 1.49,3.684 3.495,3.684c2.005,0 3.6,-1.681 3.495,-3.684l0.003,-10.316h0.002v-24z" fill="#714eff" stroke="none"></path><path d="M30,30.5h4M27.744,30.5h1.256M30,33.5h4M27.744,33.5h1.256M12,30.5h3.248M9.744,30.5h1.256" fill="none" stroke="#714eff"></path><g fill="none" stroke="#714eff"><path d="M12,33.5h3.42"></path></g><g fill="none" stroke="#714eff"><path d="M9.744,33.5h1.256"></path></g></g></g></svg>