<svg xmlns="http://www.w3.org/2000/svg" xmlns:xlink="http://www.w3.org/1999/xlink" viewBox="0,0,256,256" width="64px" height="64px" fill-rule="nonzero"><g fill="none" fill-rule="nonzero" stroke="none" stroke-width="1" stroke-linecap="butt" stroke-linejoin="miter" stroke-miterlimit="10" stroke-dasharray="" stroke-dashoffset="0" font-family="none" font-weight="none" font-size="none" text-anchor="none" style="mix-blend-mode: normal"><g transform="scale(4,4)"><g><rect x="6" y="27" width="52" height="30" fill="#d8dbe0"></rect><rect x="3" y="57" width="58" height="4" fill="#565d69"></rect><path d="M52,18h-40l-9,9h58z" fill="#714eff"></path><path d="M45,27l-13,-14l-13,14v30h26z" fill="#e7eaef"></path><rect x="10" y="32" width="5" height="4" fill="#714eff"></rect><rect x="10" y="40" width="5" height="4" fill="#714eff"></rect><rect x="10" y="48" width="5" height="4" fill="#714eff"></rect><rect x="-54" y="-36" transform="rotate(180)" width="5" height="4" fill="#714eff"></rect><rect x="-54" y="-44" transform="rotate(180)" width="5" height="4" fill="#714eff"></rect><rect x="-54" y="-52" transform="rotate(180)" width="5" height="4" fill="#714eff"></rect><rect x="25" y="45" width="14" height="12" fill="#714eff"></rect><circle cx="32" cy="27" r="4" fill="#714eff"></circle><rect x="25" y="36" width="5" height="4" fill="#714eff"></rect><rect x="34" y="36" width="5" height="4" fill="#714eff"></rect><path d="M40,9.55605c-1.2708,0.57749 -2.7292,0.57749 -4,0c-2.52982,-1.26352 -4,0 -4,0v-4.99449c0,0 1.47018,-1.26351 4,0c1.2708,0.57749 2.7292,0.57749 4,0z" fill="#714eff"></path><path d="M61,56h-2v-28h2c0.40444,0 0.76905,-0.24363 0.92381,-0.61729c0.15476,-0.37366 0.06919,-0.80375 -0.21681,-1.08971l-9,-9c-0.1875,-0.18754 -0.44181,-0.29293 -0.707,-0.293h-14.92078l-4.07922,-4.393v-2.463c0.85565,-0.26892 1.7856,-0.15722 2.55322,0.3067c0.73505,0.36519 1.54546,0.55299 2.36621,0.54834c0.87189,-0.00066 1.73358,-0.18761 2.52735,-0.54834c0.33894,-0.16934 0.55311,-0.51566 0.55322,-0.89455v-4.99463c-0.00179,-0.3447 -0.1804,-0.66434 -0.47302,-0.84653c-0.29262,-0.18219 -0.65828,-0.20142 -0.96839,-0.05093c-0.99099,0.43719 -2.12,0.43825 -3.11181,0.00293c-1.05069,-0.57637 -2.26483,-0.78221 -3.44678,-0.58435v-0.08264c0,-0.55228 -0.44772,-1 -1,-1c-0.55228,0 -1,0.44772 -1,1v9.607l-4.07922,4.393h-14.92078c-0.26519,0.00007 -0.5195,0.10546 -0.707,0.293l-9,9c-0.286,0.28596 -0.37157,0.71605 -0.21681,1.08971c0.15476,0.37366 0.51937,0.61729 0.92381,0.61729h2v28h-2c-0.55228,0 -1,0.44772 -1,1v4c0,0.55228 0.44772,1 1,1h58c0.55228,0 1,-0.44772 1,-1v-4c0,-0.55228 -0.44772,-1 -1,-1zM57,56h-11v-28h11zM26,56v-10h5v10zM33,46h5v10h-5zM39,44h-14c-0.55228,0 -1,0.44772 -1,1v11h-4v-28.60742l12,-12.92285l12,12.92285v28.60742h-4v-11c0,-0.55228 -0.44772,-1 -1,-1zM51.58594,19l7,7h-13.14954l-6.5,-7zM35.55322,5.45605c1.06931,0.52122 2.27954,0.67912 3.44678,0.44971v2.94724c-0.84616,0.24756 -1.75343,0.17955 -2.55322,-0.19141c-1.05063,-0.57654 -2.26482,-0.78244 -3.44678,-0.5845v-2.92786c0.85569,-0.26861 1.78553,-0.15687 2.55322,0.30682zM12.41406,19h12.64954l-6.5,7h-13.14954zM7,28h11v28h-11zM60,60h-56v-2h56zM15,31h-5c-0.55228,0 -1,0.44772 -1,1v4c0,0.55228 0.44772,1 1,1h5c0.55228,0 1,-0.44772 1,-1v-4c0,-0.55228 -0.44772,-1 -1,-1zM14,35h-3v-2h3zM15,39h-5c-0.55228,0 -1,0.44772 -1,1v4c0,0.55228 0.44772,1 1,1h5c0.55228,0 1,-0.44772 1,-1v-4c0,-0.55228 -0.44772,-1 -1,-1zM14,43h-3v-2h3zM15,47h-5c-0.55228,0 -1,0.44772 -1,1v4c0,0.55228 0.44772,1 1,1h5c0.55228,0 1,-0.44772 1,-1v-4c0,-0.55228 -0.44772,-1 -1,-1zM14,51h-3v-2h3zM49,37h5c0.55228,0 1,-0.44772 1,-1v-4c0,-0.55228 -0.44772,-1 -1,-1h-5c-0.55228,0 -1,0.44772 -1,1v4c0,0.55228 0.44772,1 1,1zM50,33h3v2h-3zM49,45h5c0.55228,0 1,-0.44772 1,-1v-4c0,-0.55228 -0.44772,-1 -1,-1h-5c-0.55228,0 -1,0.44772 -1,1v4c0,0.55228 0.44772,1 1,1zM50,41h3v2h-3zM49,53h5c0.55228,0 1,-0.44772 1,-1v-4c0,-0.55228 -0.44772,-1 -1,-1h-5c-0.55228,0 -1,0.44772 -1,1v4c0,0.55228 0.44772,1 1,1zM50,49h3v2h-3zM37,27c0,-2.76142 -2.23858,-5 -5,-5c-2.76142,0 -5,2.23858 -5,5c0,2.76142 2.23858,5 5,5c2.76008,-0.00324 4.99676,-2.23992 5,-5zM32,30c-1.65685,0 -3,-1.34315 -3,-3c0,-1.65685 1.34315,-3 3,-3c1.65685,0 3,1.34315 3,3c-0.00181,1.6561 -1.3439,2.99819 -3,3zM30,35h-5c-0.55228,0 -1,0.44772 -1,1v4c0,0.55228 0.44772,1 1,1h5c0.55228,0 1,-0.44772 1,-1v-4c0,-0.55228 -0.44772,-1 -1,-1zM29,39h-3v-2h3zM40,36c0,-0.55228 -0.44772,-1 -1,-1h-5c-0.55228,0 -1,0.44772 -1,1v4c0,0.55228 0.44772,1 1,1h5c0.55228,0 1,-0.44772 1,-1zM38,39h-3v-2h3z" fill="#000000"></path></g></g></g></svg>