<svg xmlns="http://www.w3.org/2000/svg" xmlns:xlink="http://www.w3.org/1999/xlink" viewBox="0,0,256,256" width="80px" height="80px" fill-rule="nonzero"><g fill="none" fill-rule="nonzero" stroke="none" stroke-width="1" stroke-linecap="butt" stroke-linejoin="miter" stroke-miterlimit="10" stroke-dasharray="" stroke-dashoffset="0" font-family="none" font-weight="none" font-size="none" text-anchor="none" style="mix-blend-mode: normal"><g transform="scale(3.2,3.2)"><path d="M2.506,77.5c0.273,-11.625 10.034,-21 21.994,-21h15c11.96,0 21.721,9.375 21.994,21z" fill="#714eff"></path><path d="M39.5,57c11.512,0 20.94,8.883 21.476,20h-57.952c0.536,-11.117 9.964,-20 21.476,-20h15M39.5,56h-15c-12.426,0 -22.5,9.85 -22.5,22v0h60v0c0,-12.15 -10.074,-22 -22.5,-22z" fill="#4e7ab5"></path><path d="M32,63.5c-6.624,0 -9.203,-5.908 -9.5,-6.65v-11.53h19v11.532c-0.307,0.789 -2.815,6.648 -9.5,6.648z" fill="#deb974"></path><path d="M41,45.819v10.933c-0.401,0.959 -2.89,6.248 -9,6.248c-6.155,0 -8.596,-5.257 -9,-6.245v-10.936h18M42,44.819h-20v12.124c0,0 2.534,7.057 10,7.057c7.466,0 10,-7.057 10,-7.057v-12.124z" fill="#967a44"></path><path d="M44.857,41.785c-2.56,0 -4.643,-2.083 -4.643,-4.643c0,-2.56 2.083,-4.643 4.643,-4.643c3.298,0 4.643,0.849 4.643,2.929c0,2.51 -2.08,6.357 -4.643,6.357zM19.143,41.785c-2.562,0 -4.643,-3.847 -4.643,-6.356c0,-2.08 1.345,-2.929 4.643,-2.929c2.56,0 4.643,2.083 4.643,4.643c0,2.56 -2.083,4.642 -4.643,4.642z" fill="#deb974"></path><path d="M44.857,33c3.45,0 4.143,0.929 4.143,2.428c0,2.503 -2.048,5.857 -4.143,5.857c-2.284,0 -4.143,-1.858 -4.143,-4.143c0,-2.285 1.859,-4.142 4.143,-4.142M19.143,33c2.284,0 4.143,1.859 4.143,4.143c0,2.284 -1.858,4.143 -4.143,4.143c-2.095,0 -4.143,-3.354 -4.143,-5.857c0,-1.5 0.693,-2.429 4.143,-2.429M44.857,32c-2.84,0 -5.143,2.303 -5.143,5.143c0,2.84 2.303,5.143 5.143,5.143c2.84,0 5.143,-4.017 5.143,-6.858c0,-2.841 -2.303,-3.428 -5.143,-3.428zM19.143,32c-2.841,0 -5.143,0.588 -5.143,3.428c0,2.84 2.303,6.857 5.143,6.857c2.84,0 5.143,-2.302 5.143,-5.143c0,-2.841 -2.303,-5.142 -5.143,-5.142z" fill="#967a44"></path><g><path d="M32,55.5c-1.3,0 -2.535,-0.498 -3.477,-1.402l-0.09,-0.087l-0.12,-0.034c-5.778,-1.638 -9.813,-6.975 -9.813,-12.977v-16.272c0,-3.403 2.769,-6.172 6.172,-6.172h14.656c3.403,0 6.172,2.769 6.172,6.172v16.272c0,6.002 -4.035,11.339 -9.813,12.977l-0.12,0.034l-0.09,0.087c-0.942,0.904 -2.177,1.402 -3.477,1.402z" fill="#f5ce85"></path><path d="M39.328,19.055c3.128,0 5.672,2.545 5.672,5.672v16.273c0,5.779 -3.886,10.918 -9.449,12.496l-0.24,0.068l-0.18,0.173c-0.849,0.814 -1.961,1.263 -3.131,1.263c-1.17,0 -2.282,-0.449 -3.131,-1.263l-0.18,-0.173l-0.24,-0.068c-5.563,-1.578 -9.449,-6.717 -9.449,-12.496v-16.272c0,-3.128 2.545,-5.672 5.672,-5.672h14.656M39.328,18.055h-14.656c-3.685,0 -6.672,2.987 -6.672,6.672v16.273c0,6.405 4.306,11.793 10.177,13.458c0.992,0.953 2.338,1.542 3.823,1.542v0c1.485,0 2.83,-0.589 3.823,-1.542c5.871,-1.666 10.177,-7.054 10.177,-13.458v-16.272c0,-3.685 -2.987,-6.673 -6.672,-6.673z" fill="#967a44"></path></g><g><path d="M45.5,37.5v-7.5c0,-6.66 -5.292,-8.458 -5.345,-8.476l-0.295,-0.096l-0.217,0.222c-0.057,0.059 -5.797,5.849 -12.642,5.849c-0.533,0 -1.07,-0.018 -1.598,-0.034c-0.524,-0.017 -1.041,-0.033 -1.539,-0.033c-2.785,0 -5.363,0.554 -5.363,4.568v5.5h-0.217c-0.701,-1.192 -3.783,-6.755 -3.783,-12.348c-0.001,-9.804 7.195,-16.652 17.499,-16.652c6.49,0 9.527,5.674 9.557,5.731l0.119,0.228l0.254,0.036c5.164,0.74 7.57,4.396 7.57,11.505c0,5.077 -3.073,10.358 -3.776,11.5z" fill="#a6714e"></path><path d="M32,9c6.155,0 8.997,5.242 9.114,5.463l0.237,0.454l0.507,0.073c3.066,0.439 7.142,2.058 7.142,11.01c0,3.895 -1.872,7.936 -3,10.018v-6.018c0,-3.644 -1.526,-5.878 -2.807,-7.111c-1.4,-1.347 -2.824,-1.821 -2.884,-1.84l-0.59,-0.191l-0.434,0.443c-0.056,0.057 -5.659,5.699 -12.285,5.699c-0.528,0 -1.059,-0.017 -1.583,-0.034c-0.529,-0.017 -1.051,-0.033 -1.555,-0.033c-1.754,0 -5.862,0 -5.862,5.068v3.945c-1.132,-2.203 -3,-6.489 -3,-10.792c0,-9.512 6.991,-16.154 17,-16.154M32,8c-10.719,0 -18,7.333 -18,17.152c0,6.504 4,12.848 4,12.848h1c0,0 0,-4.211 0,-6c0,-3.582 2.17,-4.068 4.862,-4.068c1.002,0 2.076,0.067 3.138,0.067c7.146,0 13,-6 13,-6c0,0 5,1.626 5,8c0,1.968 0,8 0,8h1c0,0 4,-6.073 4,-12c0,-8.322 -3.405,-11.342 -8,-12c0,0.001 -3.132,-5.999 -10,-5.999z" fill="#7a4f34"></path></g><g><path d="M40.873,39.472c1.018,-1.883 2.333,-4.831 3.624,-8.136l0.131,-0.336l-0.278,-0.23c-3.772,-3.133 -5.85,-7.314 -5.85,-11.77c0,-9.098 8.748,-16.5 19.5,-16.5c10.752,0 19.5,7.402 19.5,16.5c0,9.098 -8.748,16.5 -19.5,16.5c-1.346,0 -2.708,-0.121 -4.048,-0.36l-0.177,-0.031l-0.156,0.088c-3.291,1.857 -8.471,4.004 -12.746,4.275z" fill="#714eff"></path><path d="M58,3c10.477,0 19,7.178 19,16c0,8.822 -8.523,16 -19,16c-1.318,0 -2.651,-0.119 -3.96,-0.353l-0.354,-0.063l-0.313,0.177c-3.015,1.702 -7.633,3.652 -11.632,4.13c0.955,-1.885 2.099,-4.496 3.222,-7.372l0.262,-0.672l-0.555,-0.461c-3.656,-3.037 -5.67,-7.081 -5.67,-11.386c0,-8.823 8.523,-16 19,-16M58,2c-11.046,0 -20,7.611 -20,17c0,4.766 2.314,9.068 6.031,12.154c-1.233,3.158 -2.827,6.826 -4.031,8.846c4.196,0 9.777,-2.062 13.864,-4.368c1.335,0.238 2.717,0.368 4.136,0.368c11.046,0 20,-7.611 20,-17c0,-9.389 -8.954,-17 -20,-17z" fill="#572eff"></path></g></g></g></svg>