<svg xmlns="http://www.w3.org/2000/svg" xmlns:xlink="http://www.w3.org/1999/xlink" viewBox="0,0,256,256" width="64px" height="64px" fill-rule="nonzero"><g fill="none" fill-rule="nonzero" stroke="none" stroke-width="1" stroke-linecap="butt" stroke-linejoin="miter" stroke-miterlimit="10" stroke-dasharray="" stroke-dashoffset="0" font-family="none" font-weight="none" font-size="none" text-anchor="none" style="mix-blend-mode: normal"><g transform="scale(4,4)"><g><rect x="5" y="19" width="54" height="36" rx="4" ry="0" fill="#714eff"></rect><path d="M58,52h-18c-17.67311,0 -32,-14.32689 -32,-32v0c0.00216,-0.30046 0.03839,-0.59971 0.108,-0.892c-1.81585,0.41539 -3.10461,2.02924 -3.108,3.892v28c0,2.20914 1.79086,4 4,4h46c1.86276,-0.00339 3.47661,-1.29215 3.892,-3.108c-0.29229,0.06961 -0.59154,0.10584 -0.892,0.108z" fill="#6640ff"></path><rect x="1" y="9" width="62" height="4" fill="#7a838b"></rect><rect x="1" y="9" width="3" height="4" fill="#5d6972"></rect><rect x="11" y="13" width="4" height="6" fill="#7a838b"></rect><rect x="11" y="13" width="4" height="2" fill="#5d6972"></rect><rect x="49" y="13" width="4" height="6" fill="#7a838b"></rect><rect x="21" y="29" width="22" height="4" fill="#7a838b"></rect><rect x="18" y="23" width="3" height="16" rx="1.5" ry="0" fill="#7664c0"></rect><rect x="49" y="13" width="4" height="2" fill="#5d6972"></rect><rect x="15" y="25" width="3" height="12" rx="1.5" ry="0" fill="#7664c0"></rect><rect x="-45.998" y="-39" transform="rotate(180)" width="3" height="16" rx="1.5" ry="0" fill="#7664c0"></rect><rect x="-48.998" y="-37" transform="rotate(-180)" width="3" height="12" rx="1.5" ry="0" fill="#7664c0"></rect><path d="M13,29h2v4h-2c-1.10457,0 -2,-0.89543 -2,-2v0c0,-1.10457 0.89543,-2 2,-2z" fill="#7a838b"></path><path transform="translate(102,62) rotate(-180)" d="M51,29h2v4h-2c-1.10457,0 -2,-0.89543 -2,-2v0c0,-1.10457 0.89543,-2 2,-2z" fill="#7a838b"></path><path d="M63,8h-62c-0.55228,0 -1,0.44772 -1,1v4c0,0.55228 0.44772,1 1,1h9v4h-1c-2.76005,0.00331 -4.99669,2.23995 -5,5v28c0.00331,2.76005 2.23995,4.99669 5,5h46c2.76005,-0.00331 4.99669,-2.23995 5,-5v-28c-0.00331,-2.76005 -2.23995,-4.99669 -5,-5h-1v-4h9c0.55228,0 1,-0.44772 1,-1v-4c0,-0.55228 -0.44772,-1 -1,-1zM12,14h2v4h-2zM58,23v28c0,1.65685 -1.34315,3 -3,3h-46c-1.65685,0 -3,-1.34315 -3,-3v-28c0,-1.65685 1.34315,-3 3,-3h30c0.55228,0 1,-0.44772 1,-1c0,-0.55228 -0.44772,-1 -1,-1h-23v-4h32v4h-5c-0.55228,0 -1,0.44772 -1,1c0,0.55228 0.44772,1 1,1h12c1.65685,0 3,1.34315 3,3zM52,18h-2v-4h2zM62,12h-60v-2h60z" fill="#000000"></path><path d="M50,28v-1.5c0,-1.38071 -1.11929,-2.5 -2.5,-2.5c-0.18316,0.0009 -0.36563,0.02237 -0.544,0.064c-0.2394,-1.26178 -1.39592,-2.13691 -2.67527,-2.02436c-1.27935,0.11255 -2.26531,1.17616 -2.28073,2.46036v3.5h-20v-3.5c-0.01542,-1.2842 -1.00138,-2.34781 -2.28073,-2.46036c-1.27935,-0.11255 -2.43587,0.76258 -2.67527,2.02436c-0.17837,-0.04163 -0.36084,-0.0631 -0.544,-0.064c-1.38071,0 -2.5,1.11929 -2.5,2.5v1.5h-1c-1.65685,0 -3,1.34315 -3,3c0,1.65685 1.34315,3 3,3h1v1.5c0,1.38071 1.11929,2.5 2.5,2.5c0.18316,-0.0009 0.36563,-0.02237 0.544,-0.064c0.2394,1.26178 1.39592,2.13691 2.67527,2.02436c1.27935,-0.11255 2.26531,-1.17616 2.28073,-2.46036v-3.5h20v3.5c0.01542,1.2842 1.00138,2.34781 2.28073,2.46036c1.27935,0.11255 2.43587,-0.76258 2.67527,-2.02436c0.17837,0.04163 0.36084,0.0631 0.544,0.064c1.38071,0 2.5,-1.11929 2.5,-2.5v-1.5h1c1.65685,0 3,-1.34315 3,-3c0,-1.65685 -1.34315,-3 -3,-3zM13,32c-0.55228,0 -1,-0.44772 -1,-1c0,-0.55228 0.44772,-1 1,-1h1v2zM16.5,36c-0.27614,0 -0.5,-0.22386 -0.5,-0.5v-9c0,-0.27614 0.22386,-0.5 0.5,-0.5c0.27614,0 0.5,0.22386 0.5,0.5v9c0,0.27614 -0.22386,0.5 -0.5,0.5zM20,37.5c0,0.27614 -0.22386,0.5 -0.5,0.5c-0.27614,0 -0.5,-0.22386 -0.5,-0.5v-13c0,-0.27614 0.22386,-0.5 0.5,-0.5c0.27614,0 0.5,0.22386 0.5,0.5zM22,32v-2h20v2zM45,37.5c0,0.27614 -0.22386,0.5 -0.5,0.5c-0.27614,0 -0.5,-0.22386 -0.5,-0.5v-13c0,-0.27614 0.22386,-0.5 0.5,-0.5c0.27614,0 0.5,0.22386 0.5,0.5zM48,35.5c0,0.27614 -0.22386,0.5 -0.5,0.5c-0.27614,0 -0.5,-0.22386 -0.5,-0.5v-9c0,-0.27614 0.22386,-0.5 0.5,-0.5c0.27614,0 0.5,0.22386 0.5,0.5zM52,31c0,0.55228 -0.44772,1 -1,1h-1v-2h1c0.55228,0 1,0.44772 1,1z" fill="#000000"></path><path d="M21,44h4c0.55228,0 1,-0.44772 1,-1c0,-0.55228 -0.44772,-1 -1,-1h-4c-1.65685,0 -3,1.34315 -3,3v4c0,1.65685 1.34315,3 3,3h4c0.55228,0 1,-0.44772 1,-1v-4c0,-0.55228 -0.44772,-1 -1,-1h-2c-0.55228,0 -1,0.44772 -1,1c0,0.55228 0.44772,1 1,1h1v2h-3c-0.55228,0 -1,-0.44772 -1,-1v-4c0,-0.55228 0.44772,-1 1,-1z" fill="#000000"></path><path d="M35,42c-0.55228,0 -1,0.44772 -1,1v2c0,0.55228 -0.44772,1 -1,1h-2c-0.55228,0 -1,-0.44772 -1,-1v-2c0,-0.55228 -0.44772,-1 -1,-1c-0.55228,0 -1,0.44772 -1,1v2c0,1.65685 1.34315,3 3,3v3c0,0.55228 0.44772,1 1,1c0.55228,0 1,-0.44772 1,-1v-3c1.65685,0 3,-1.34315 3,-3v-2c0,-0.55228 -0.44772,-1 -1,-1z" fill="#000000"></path><path d="M45.316,42.052c-0.40813,-0.13615 -0.8576,0.004 -1.116,0.348l-2.2,2.933l-2.2,-2.933c-0.25826,-0.34434 -0.70789,-0.4848 -1.11623,-0.34868c-0.40834,0.13611 -0.68377,0.51825 -0.68377,0.94868v8c0,0.55228 0.44772,1 1,1c0.55228,0 1,-0.44772 1,-1v-5l1.2,1.6c0.19679,0.23917 0.49027,0.37775 0.8,0.37775c0.30973,0 0.60321,-0.13858 0.8,-0.37775l1.2,-1.6v5c0,0.55228 0.44772,1 1,1c0.55228,0 1,-0.44772 1,-1v-8c-0.00033,-0.43024 -0.27581,-0.81204 -0.684,-0.948z" fill="#000000"></path><path d="M55,22h-2c-0.55228,0 -1,-0.44772 -1,-1c0,-0.55228 0.44772,-1 1,-1h2c0.55228,0 1,0.44772 1,1c0,0.55228 -0.44772,1 -1,1z" fill="#ffffff"></path></g></g></g></svg>