<svg xmlns="http://www.w3.org/2000/svg" xmlns:xlink="http://www.w3.org/1999/xlink" viewBox="0,0,256,256" width="80px" height="80px" fill-rule="nonzero"><g fill="none" fill-rule="nonzero" stroke="none" stroke-width="1" stroke-linecap="butt" stroke-linejoin="miter" stroke-miterlimit="10" stroke-dasharray="" stroke-dashoffset="0" font-family="none" font-weight="none" font-size="none" text-anchor="none" style="mix-blend-mode: normal"><g transform="scale(3.2,3.2)"><path d="M12.7,75.5c-1.2,0 -2.2,-1 -2.2,-2.3v-66.4c0,-1.3 1,-2.3 2.2,-2.3h21c-0.1,0.5 -0.2,1 -0.2,1.5c0,3.6 2.9,6.5 6.5,6.5c3.6,0 6.5,-2.9 6.5,-6.5c0,-0.5 -0.1,-1 -0.2,-1.5h21c1.2,0 2.2,1 2.2,2.3v66.5c0,1.3 -1,2.3 -2.2,2.3h-54.6z" fill="#a28cff"></path><path d="M67.3,5c1,0 1.7,0.8 1.7,1.8v66.5c0,1 -0.8,1.8 -1.7,1.8h-54.6c-1,0 -1.7,-0.8 -1.7,-1.8v-66.5c0,-1 0.8,-1.8 1.7,-1.8h20.4c-0.1,0.3 -0.1,0.7 -0.1,1c0,3.9 3.1,7 7,7c3.9,0 7,-3.1 7,-7c0,-0.3 0,-0.7 -0.1,-1h20.4M67.3,4h-21.7c0.3,0.6 0.4,1.3 0.4,2c0,3.3 -2.7,6 -6,6c-3.3,0 -6,-2.7 -6,-6c0,-0.7 0.1,-1.4 0.4,-2h-21.7c-1.5,0 -2.7,1.2 -2.7,2.8v66.5c0,1.5 1.2,2.8 2.7,2.8h54.5c1.5,0 2.7,-1.2 2.7,-2.8v-66.5c0.1,-1.6 -1.1,-2.8 -2.6,-2.8z" fill="#714eff"></path><path d="M40,1c2.2,0 4,1.8 4,4c0,2.2 -1.8,4 -4,4c-2.2,0 -4,-1.8 -4,-4c0,-2.2 1.8,-4 4,-4M40,0c-2.8,0 -5,2.2 -5,5c0,2.8 2.2,5 5,5c2.8,0 5,-2.2 5,-5c0,-2.8 -2.2,-5 -5,-5z" fill="#795cef"></path><path d="M18,12h44v56h-44z" fill="#ffffff"></path><path d="M44.4,4c0.1,0.3 0.1,0.7 0.1,1c0,2.5 -2,4.5 -4.5,4.5c-2.5,0 -4.5,-2 -4.5,-4.5c0,-0.3 0,-0.7 0.1,-1h-9.6v8c0,2.2 1.8,4 4,4h20c2.2,0 4,-1.8 4,-4v-8z" fill="#795cef"></path><path d="M24,51h16v1h-16zM24,33h16v1h-16z" fill="#a795f3"></path><path d="M50,38.2l-4.7,-4.7l1.4,-1.5l3.3,3.3l6.6,-6.3l1.3,1.5zM50,56.2l-4.7,-4.7l1.4,-1.5l3.3,3.3l6.6,-6.3l1.3,1.5z" fill="#714eff"></path></g></g></svg>